<svg width="1420" height="578" viewBox="0 0 1420 578" fill="none" xmlns="http://www.w3.org/2000/svg" xmlns:xlink="http://www.w3.org/1999/xlink">
<path d="M142.714 2.20874C115.984 7.97036 72.3699 13.732 16.7872 57.8116C14.8993 59.3087 13.742 61.5672 13.6488 63.9749C10.1408 154.659 40.1855 252.468 141.548 287.34C143.262 287.929 145.177 287.929 146.891 287.34C248.25 252.468 278.094 154.659 274.58 63.9749C274.487 61.5672 273.33 59.3087 271.442 57.8116C215.859 13.732 172.245 7.97036 145.515 2.20874C144.241 1.93725 143.117 2.09562 142.714 2.20874Z" fill="#67D3DE"/>
<path d="M142.925 28.271C107.797 32.0568 68.2208 49.8964 38.695 73.5056C36.859 74.9737 35.7562 77.1505 35.6516 79.4989C32.6768 146.256 52.038 234.954 141.446 264.606C143.092 265.152 144.93 265.152 146.576 264.606C235.976 234.954 254.922 146.256 251.932 79.4989C251.827 77.1505 250.724 74.9737 248.888 73.5056C219.363 49.8964 179.786 32.0568 144.658 28.271H142.925Z" fill="white"/>
<path d="M42.3149 79.7496C72.1109 50.43 128.026 34.7866 144.22 34.135C160.413 34.7877 215.909 50.43 245.705 79.7496C252.182 143.603 223.682 238.077 144.01 257.624C64.3384 238.077 35.8375 143.603 42.3149 79.7496Z" fill="#0C94A4"/>
<path d="M42.3149 79.7496C72.1109 50.43 128.026 34.7866 144.22 34.135L144.01 257.624C64.3384 238.077 35.8375 143.603 42.3149 79.7496Z" fill="#39C6D4"/>
<g clip-path="url(#clip0_1633_64485)">
<path fill-rule="evenodd" clip-rule="evenodd" d="M65.5794 86.866C63.2046 88.4663 63.2562 91.5637 65.6826 93.3706C66.3538 93.8868 66.7668 93.9126 74.743 93.99C82.203 94.0675 83.1065 94.1191 83.4679 94.5063C83.7518 94.816 99.7043 153.254 101.331 159.913C101.511 160.584 101.46 160.636 100.737 160.636C99.5236 160.636 96.9423 161.539 95.5484 162.417C87.5463 167.554 88.2175 179.195 96.7616 183.428C98.1181 183.801 99.696 184.619 103.215 184.589C108.042 184.693 107.577 184.383 106.777 187.222C105.951 190.087 106.364 193.649 107.861 196.721C108.791 198.683 111.733 201.625 113.618 202.554C118.006 204.671 122.833 204.49 126.886 202.064C129.699 200.36 131.661 197.934 132.719 194.785C133.7 191.92 133.519 187.945 132.28 184.951C132.151 184.718 134.681 184.641 144.309 184.641H156.493L156.312 185.209C155.59 187.558 155.383 188.642 155.383 190.578C155.383 194.32 156.674 197.444 159.333 200.076C161.94 202.709 165.089 204 168.832 204C174.95 204 180.138 200.076 181.867 194.114C182.59 191.61 182.384 187.79 181.377 185.415C181.016 184.538 181.041 184.512 181.764 184.073C184.242 182.55 184.087 178.859 181.48 177.491L180.37 176.897H140.644C101.64 176.897 100.918 176.897 99.9366 176.381C96.9939 174.91 97.0456 170.212 99.9883 168.818C100.814 168.405 104.067 168.38 139.095 168.38C163.85 168.38 177.763 168.276 178.667 168.121C181.635 167.554 184.32 165.514 185.585 162.83C185.894 162.159 188.372 152.015 191.083 140.296C196.478 116.808 196.374 117.53 195.032 114.82C194.309 113.297 193.148 112.162 191.47 111.284C190.388 110.691 190.283 110.69 176.27 110.536L176.189 110.535C168.393 110.432 148.801 110.329 132.693 110.303C116.586 110.277 101.718 110.174 99.6527 110.071L95.9098 109.916L93.5608 101.217C92.296 96.4422 91.0053 92.0542 90.7472 91.4347C90.0244 89.886 88.0368 87.9501 86.3073 87.1241L84.8101 86.4272L75.6465 86.3498L66.457 86.2723L65.5794 86.866ZM115.554 118.047H109.565C106.287 118.047 102.337 117.969 100.814 117.866L98.0265 117.711L98.1813 118.305C98.2588 118.64 99.3429 122.667 100.582 127.261L102.854 135.599H110.288C117.206 135.599 117.722 135.573 117.722 135.134C117.722 134.902 117.231 130.952 116.638 126.358L115.554 118.047ZM140.437 135.599V126.823V118.047H131.919C127.247 118.047 123.401 118.098 123.401 118.176C123.401 118.46 125.466 133.921 125.595 134.747L125.75 135.599H133.081H140.437ZM164.108 127.21C164.702 122.667 165.192 118.744 165.218 118.485C165.218 118.072 164.65 118.047 156.7 118.047H148.181V126.823V135.599L155.59 135.547L162.998 135.47L164.108 127.21ZM184.165 135.366C184.242 135.237 185.12 131.624 186.127 127.313C187.043 123.288 187.868 119.713 188.037 118.984L188.063 118.873L188.192 118.305H180.628H173.065L171.981 126.616C171.387 131.211 170.897 135.108 170.897 135.263C170.897 135.521 172.394 135.599 177.453 135.599C181.067 135.599 184.087 135.495 184.165 135.366ZM121.078 160.171C121.078 159.939 120.587 156.042 119.993 151.524L118.909 143.342H111.991C107.164 143.342 105.073 143.42 105.073 143.626C105.073 144.168 108.971 158.468 109.333 159.294C109.539 159.758 110.004 160.249 110.391 160.378C110.752 160.533 113.308 160.636 116.07 160.636C120.665 160.636 121.078 160.61 121.078 160.171ZM140.437 160.636V151.989V143.342H133.597C129.828 143.342 126.756 143.42 126.756 143.497C126.756 143.833 128.847 159.5 128.976 160.042L129.08 160.636H134.759H140.437ZM159.668 160.3C159.797 159.939 161.862 144.323 161.862 143.729C161.862 143.394 160.985 143.342 155.022 143.342H148.181V151.989V160.636H153.86C158.197 160.636 159.591 160.559 159.668 160.3ZM178.615 159.371C178.925 158.623 182.255 144.22 182.255 143.678C182.255 143.187 169.89 143.187 169.735 143.652C169.658 143.962 167.541 160.042 167.541 160.455C167.541 160.765 176.989 160.662 177.712 160.352C178.047 160.171 178.46 159.758 178.615 159.371ZM123.84 194.656C126.679 192.023 126.034 187.222 122.626 185.493C117.412 182.886 112.198 188.022 114.831 193.185C115.786 195.095 117.206 196.05 119.245 196.205C121.207 196.334 122.446 195.921 123.84 194.656ZM174.537 190.449C174.537 187.971 172.626 185.519 170.252 184.925C168.29 184.434 166.767 184.796 165.244 186.112C163.772 187.377 163.153 188.668 163.153 190.5C163.179 193.907 165.502 196.256 168.883 196.256C172.162 196.23 174.537 193.804 174.537 190.449Z" fill="white"/>
</g>
<path d="M339.172 140.776V45.8004H373.744C384.341 45.8004 392.488 47.7432 398.184 51.6287C403.88 55.5143 406.727 60.9894 406.727 68.0541C406.727 73.176 404.983 77.6577 401.495 81.4991C398.051 85.3405 393.636 88.0118 388.249 89.5131V89.778C395.005 90.6169 400.391 93.1116 404.409 97.2621C408.472 101.413 410.503 106.468 410.503 112.429C410.503 121.127 407.39 128.038 401.164 133.16C394.938 138.237 386.439 140.776 375.665 140.776H339.172ZM360.564 61.5634V84.0821H369.969C374.385 84.0821 377.851 83.0224 380.367 80.903C382.928 78.7394 384.209 75.7811 384.209 72.028C384.209 65.0516 378.999 61.5634 368.578 61.5634H360.564ZM360.564 99.9776V125.013H372.155C377.1 125.013 380.963 123.865 383.745 121.569C386.571 119.273 387.984 116.138 387.984 112.164C387.984 108.367 386.593 105.387 383.811 103.223C381.074 101.059 377.232 99.9776 372.287 99.9776H360.564ZM488.589 140.776H467.727V130.444H467.395C462.229 138.436 455.319 142.432 446.665 142.432C430.946 142.432 423.087 132.917 423.087 113.886V72.9552H443.949V112.032C443.949 121.613 447.747 126.404 455.341 126.404C459.094 126.404 462.097 125.101 464.349 122.496C466.601 119.847 467.727 116.271 467.727 111.767V72.9552H488.589V140.776ZM570.849 72.9552L543.297 146.207C536.673 163.825 526.695 172.633 513.36 172.633C508.282 172.633 504.11 172.059 500.842 170.911V154.221C503.624 155.855 506.648 156.672 509.916 156.672C515.303 156.672 519.056 154.133 521.175 149.055L524.752 140.644L497.199 72.9552H520.38L533.031 114.217C533.825 116.778 534.444 119.803 534.885 123.291H535.15C535.547 120.73 536.276 117.75 537.336 114.35L550.118 72.9552H570.849ZM638.868 112.826H594.626C595.332 122.673 601.536 127.596 613.237 127.596C620.699 127.596 627.256 125.83 632.907 122.298V137.398C626.638 140.754 618.491 142.432 608.468 142.432C597.518 142.432 589.018 139.407 582.969 133.358C576.92 127.265 573.895 118.787 573.895 107.925C573.895 96.6661 577.163 87.7469 583.698 81.1679C590.232 74.5889 598.268 71.2994 607.806 71.2994C617.696 71.2994 625.335 74.2357 630.722 80.1082C636.153 85.9807 638.868 93.9506 638.868 104.018V112.826ZM619.463 99.9776C619.463 90.2637 615.533 85.4067 607.673 85.4067C604.318 85.4067 601.403 86.7976 598.931 89.5793C596.502 92.361 595.023 95.8271 594.493 99.9776H619.463ZM695.562 91.8312C693.046 90.4624 690.109 89.778 686.754 89.778C682.206 89.778 678.651 91.4559 676.09 94.8116C673.529 98.1231 672.249 102.649 672.249 108.389V140.776H651.32V72.9552H672.249V85.5392H672.514C675.825 76.3551 681.786 71.7631 690.396 71.7631C692.604 71.7631 694.326 72.028 695.562 72.5578V91.8312ZM766.297 108.058V140.776H744.905V45.8004H778.418C802.349 45.8004 814.315 55.8896 814.315 76.0681C814.315 85.6054 810.871 93.3324 803.983 99.2491C797.139 105.122 787.977 108.058 776.497 108.058H766.297ZM766.297 62.2258V91.8312H774.709C786.101 91.8312 791.796 86.8417 791.796 76.8629C791.796 67.1048 786.101 62.2258 774.709 62.2258H766.297ZM870.413 91.8312C867.896 90.4624 864.96 89.778 861.604 89.778C857.056 89.778 853.502 91.4559 850.941 94.8116C848.38 98.1231 847.1 102.649 847.1 108.389V140.776H826.171V72.9552H847.1V85.5392H847.365C850.676 76.3551 856.637 71.7631 865.247 71.7631C867.455 71.7631 869.177 72.028 870.413 72.5578V91.8312ZM912.006 142.432C900.703 142.432 891.806 139.275 885.315 132.961C878.869 126.603 875.645 117.993 875.645 107.131C875.645 95.9154 879.001 87.1508 885.713 80.8368C892.424 74.4786 901.498 71.2994 912.934 71.2994C924.193 71.2994 933.024 74.4786 939.426 80.8368C945.829 87.1508 949.03 95.518 949.03 105.938C949.03 117.198 945.718 126.095 939.095 132.63C932.516 139.164 923.486 142.432 912.006 142.432ZM912.536 87.3274C907.591 87.3274 903.75 89.0274 901.012 92.4272C898.274 95.8271 896.906 100.64 896.906 106.866C896.906 119.891 902.16 126.404 912.669 126.404C922.692 126.404 927.703 119.715 927.703 106.336C927.703 93.6636 922.648 87.3274 912.536 87.3274ZM1003.6 139.981C1000.51 141.615 995.855 142.432 989.629 142.432C974.882 142.432 967.508 134.771 967.508 119.45V88.3871H956.514V72.9552H967.508V58.3181L988.371 52.3573V72.9552H1003.6V88.3871H988.371V115.807C988.371 122.872 991.175 126.404 996.782 126.404C998.99 126.404 1001.26 125.764 1003.6 124.483V139.981ZM1075.86 112.826H1031.62C1032.33 122.673 1038.53 127.596 1050.23 127.596C1057.69 127.596 1064.25 125.83 1069.9 122.298V137.398C1063.63 140.754 1055.49 142.432 1045.46 142.432C1034.51 142.432 1026.01 139.407 1019.96 133.358C1013.91 127.265 1010.89 118.787 1010.89 107.925C1010.89 96.6661 1014.16 87.7469 1020.69 81.1679C1027.23 74.5889 1035.26 71.2994 1044.8 71.2994C1054.69 71.2994 1062.33 74.2357 1067.72 80.1082C1073.15 85.9807 1075.86 93.9506 1075.86 104.018V112.826ZM1056.46 99.9776C1056.46 90.2637 1052.53 85.4067 1044.67 85.4067C1041.31 85.4067 1038.4 86.7976 1035.93 89.5793C1033.5 92.361 1032.02 95.8271 1031.49 99.9776H1056.46ZM1139.71 138.326C1134.99 141.063 1128.16 142.432 1119.24 142.432C1108.82 142.432 1100.39 139.275 1093.94 132.961C1087.5 126.647 1084.27 118.5 1084.27 108.521C1084.27 96.9972 1087.72 87.9235 1094.61 81.3004C1101.54 74.6331 1110.79 71.2994 1122.36 71.2994C1130.35 71.2994 1136.13 72.3591 1139.71 74.4786V92.2286C1135.34 88.9611 1130.46 87.3274 1125.07 87.3274C1119.07 87.3274 1114.3 89.0936 1110.77 92.6259C1107.28 96.1141 1105.53 100.949 1105.53 107.131C1105.53 113.136 1107.21 117.86 1110.57 121.304C1113.92 124.704 1118.54 126.404 1124.41 126.404C1129.62 126.404 1134.72 124.77 1139.71 121.503V138.326ZM1194.48 139.981C1191.39 141.615 1186.73 142.432 1180.51 142.432C1165.76 142.432 1158.39 134.771 1158.39 119.45V88.3871H1147.39V72.9552H1158.39V58.3181L1179.25 52.3573V72.9552H1194.48V88.3871H1179.25V115.807C1179.25 122.872 1182.05 126.404 1187.66 126.404C1189.87 126.404 1192.14 125.764 1194.48 124.483V139.981ZM1216.94 62.2258C1213.4 62.2258 1210.51 61.1881 1208.26 59.1129C1206.01 56.9935 1204.88 54.4105 1204.88 51.3638C1204.88 48.2289 1206.01 45.6679 1208.26 43.681C1210.51 41.694 1213.4 40.7006 1216.94 40.7006C1220.51 40.7006 1223.4 41.694 1225.61 43.681C1227.86 45.6679 1228.99 48.2289 1228.99 51.3638C1228.99 54.5429 1227.86 57.148 1225.61 59.1791C1223.4 61.2102 1220.51 62.2258 1216.94 62.2258ZM1227.27 140.776H1206.34V72.9552H1227.27V140.776ZM1277.21 142.432C1265.9 142.432 1257.01 139.275 1250.51 132.961C1244.07 126.603 1240.84 117.993 1240.84 107.131C1240.84 95.9154 1244.2 87.1508 1250.91 80.8368C1257.62 74.4786 1266.7 71.2994 1278.13 71.2994C1289.39 71.2994 1298.22 74.4786 1304.63 80.8368C1311.03 87.1508 1314.23 95.518 1314.23 105.938C1314.23 117.198 1310.92 126.095 1304.29 132.63C1297.72 139.164 1288.69 142.432 1277.21 142.432ZM1277.74 87.3274C1272.79 87.3274 1268.95 89.0274 1266.21 92.4272C1263.47 95.8271 1262.11 100.64 1262.11 106.866C1262.11 119.891 1267.36 126.404 1277.87 126.404C1287.89 126.404 1292.9 119.715 1292.9 106.336C1292.9 93.6636 1287.85 87.3274 1277.74 87.3274ZM1393.31 140.776H1372.45V103.09C1372.45 92.5818 1368.69 87.3274 1361.19 87.3274C1357.57 87.3274 1354.59 88.7183 1352.25 91.5C1349.91 94.2817 1348.74 97.8141 1348.74 102.097V140.776H1327.81V72.9552H1348.74V83.6847H1349C1353.99 75.4279 1361.25 71.2994 1370.79 71.2994C1385.8 71.2994 1393.31 80.616 1393.31 99.2491V140.776Z" fill="#0C94A4"/>
<g clip-path="url(#clip1_1633_64485)">
<path opacity="0.07" d="M505.087 186.687H376.584C369.758 186.687 364.537 191.279 364.537 197.284V260.866C364.537 266.871 370.159 271.463 376.584 271.463H505.087C511.914 271.463 517.134 266.871 517.134 260.866V197.284C517.134 191.279 511.512 186.687 505.087 186.687Z" fill="black"/>
<path d="M505.087 190.219C509.504 190.219 513.118 193.398 513.118 197.284V260.866C513.118 264.751 509.504 267.93 505.087 267.93H376.584C372.167 267.93 368.553 264.751 368.553 260.866V197.284C368.553 193.398 372.167 190.219 376.584 190.219H505.087Z" fill="white"/>
<path d="M378.873 211.978H372.568V231.406H378.873C382.206 231.406 384.615 230.7 386.744 229.181C389.274 227.344 390.76 224.589 390.76 221.727C390.719 215.97 385.86 211.978 378.873 211.978V211.978ZM383.933 226.602C382.567 227.662 380.841 228.156 378.03 228.156H376.865V215.299H378.03C380.801 215.299 382.487 215.722 383.933 216.853C385.419 218.019 386.302 219.82 386.302 221.692C386.302 223.564 385.419 225.436 383.933 226.602ZM392.727 211.978H397.024V231.406H392.727V211.978V211.978ZM407.545 219.431C404.975 218.584 404.212 218.019 404.212 216.994C404.212 215.758 405.578 214.839 407.425 214.839C408.71 214.839 409.794 215.299 410.878 216.429L413.127 213.85C411.28 212.437 409.071 211.696 406.622 211.696C402.726 211.696 399.715 214.098 399.715 217.277C399.715 219.961 401.12 221.339 405.136 222.611C406.822 223.14 407.666 223.494 408.107 223.706C408.951 224.2 409.392 224.907 409.392 225.719C409.392 227.309 407.987 228.474 406.059 228.474C404.011 228.474 402.365 227.556 401.361 225.896L398.59 228.262C400.558 230.841 402.967 231.971 406.22 231.971C410.677 231.971 413.85 229.357 413.85 225.578C413.93 222.434 412.444 221.021 407.545 219.431V219.431ZM415.255 221.727C415.255 227.45 420.355 231.865 426.901 231.865C428.748 231.865 430.354 231.547 432.282 230.735V226.284C430.555 227.803 429.029 228.404 427.102 228.404C422.765 228.404 419.673 225.648 419.673 221.692C419.673 217.948 422.845 215.016 426.901 215.016C428.949 215.016 430.515 215.652 432.282 217.206V212.755C430.395 211.908 428.828 211.554 426.981 211.554C420.516 211.554 415.255 216.076 415.255 221.727V221.727ZM466.496 225.048L460.593 211.978H455.894L465.251 231.901H467.58L477.097 211.978H472.439L466.496 225.048V225.048ZM479.065 231.406H491.273V228.121H483.362V222.893H490.992V219.608H483.362V215.299H491.273V211.978H479.065V231.406V231.406ZM508.34 217.736C508.34 214.098 505.488 212.014 500.509 212.014H494.124V231.441H498.421V223.635H498.983L504.926 231.441H510.227L503.28 223.246C506.532 222.646 508.34 220.703 508.34 217.736V217.736ZM499.666 220.95H498.421V215.051H499.746C502.436 215.051 503.882 216.04 503.882 217.948C503.882 219.891 502.436 220.95 499.666 220.95V220.95Z" fill="#231F20"/>
<path d="M445.495 232.112C448.616 232.112 451.61 231.022 453.817 229.08C456.025 227.138 457.265 224.505 457.265 221.759C457.265 219.013 456.025 216.38 453.817 214.438C451.61 212.497 448.616 211.406 445.495 211.406C442.373 211.406 439.379 212.497 437.172 214.438C434.965 216.38 433.725 219.013 433.725 221.759C433.725 224.505 434.965 227.138 437.172 229.08C439.379 231.022 442.373 232.112 445.495 232.112Z" fill="url(#paint0_linear_1633_64485)"/>
<path opacity="0.65" d="M445.495 232.112C448.616 232.112 451.61 231.022 453.817 229.08C456.025 227.138 457.265 224.505 457.265 221.759C457.265 219.013 456.025 216.38 453.817 214.438C451.61 212.497 448.616 211.406 445.495 211.406C442.373 211.406 439.379 212.497 437.172 214.438C434.965 216.38 433.725 219.013 433.725 221.759C433.725 224.505 434.965 227.138 437.172 229.08C439.379 231.022 442.373 232.112 445.495 232.112Z" fill="url(#paint1_linear_1633_64485)"/>
<path d="M511.389 213.2C511.389 212.847 511.108 212.67 510.666 212.67H510.023V214.366H510.505V213.695L511.068 214.366H511.63L510.987 213.659C511.228 213.624 511.389 213.448 511.389 213.2V213.2ZM510.586 213.448H510.505V212.988H510.586C510.827 212.988 510.947 213.059 510.947 213.2C510.947 213.377 510.827 213.448 510.586 213.448Z" fill="#231F20"/>
<path d="M510.749 212.035C509.825 212.035 509.062 212.706 509.062 213.518C509.062 214.331 509.825 215.002 510.749 215.002C511.673 215.002 512.436 214.331 512.436 213.518C512.436 212.706 511.673 212.035 510.749 212.035ZM510.749 214.754C510.026 214.754 509.384 214.225 509.384 213.518C509.384 212.847 509.986 212.282 510.749 212.282C511.472 212.282 512.074 212.847 512.074 213.518C512.074 214.189 511.472 214.754 510.749 214.754Z" fill="#231F20"/>
<path d="M513.12 232.55C513.12 232.55 473.325 256.884 400.584 267.93H505.085C507.204 267.93 509.237 267.194 510.741 265.881C512.246 264.568 513.099 262.786 513.116 260.922L513.213 250.254L513.12 232.554V232.55Z" fill="#F48120"/>
</g>
<g clip-path="url(#clip2_1633_64485)">
<path opacity="0.07" d="M674.64 186.687H546.137C539.31 186.687 534.09 191.279 534.09 197.284V260.866C534.09 266.871 539.712 271.463 546.137 271.463H674.64C681.466 271.463 686.687 266.871 686.687 260.866V197.284C686.687 191.279 681.065 186.687 674.64 186.687Z" fill="black"/>
<path d="M674.64 190.219C679.057 190.219 682.671 193.398 682.671 197.284V260.866C682.671 264.751 679.057 267.93 674.64 267.93H546.137C541.72 267.93 538.105 264.751 538.105 260.866V197.284C538.105 193.398 541.72 190.219 546.137 190.219H674.64Z" fill="white"/>
<path d="M630.068 216.005C630.871 212.472 630.068 210 627.659 207.88C625.249 205.408 620.832 204.348 615.21 204.348H598.745C597.541 204.348 596.738 205.054 596.336 206.114L590.312 241.791C590.312 242.497 590.714 243.204 591.517 243.204H602.36L603.966 231.194L611.194 223.423L630.068 216.005V216.005Z" fill="#003087"/>
<path d="M630.067 216.005L629.264 216.711C627.256 226.602 620.429 230.134 610.791 230.134H606.374C605.169 230.134 604.366 230.841 603.965 231.9L601.555 245.676L600.752 249.209C600.752 249.915 601.154 250.622 601.957 250.622H610.39C611.594 250.622 612.398 249.915 612.398 249.209V248.856L614.004 240.378V240.025C614.004 239.318 615.209 238.612 616.012 238.612H617.216C625.649 238.612 632.074 235.786 633.681 227.308C634.484 223.776 634.082 220.95 632.074 218.831C631.673 217.064 630.87 216.358 630.067 216.005V216.005Z" fill="#3086C8"/>
<path d="M627.656 215.298C627.254 214.945 626.852 214.945 626.451 214.945C626.049 214.945 625.648 214.945 625.246 214.592C624.041 214.239 622.435 214.239 620.829 214.239H608.782C608.38 214.239 607.979 214.239 607.979 214.592C607.175 214.945 606.774 215.298 606.774 216.005L603.963 231.547V231.9C603.963 230.841 605.168 230.134 606.372 230.134H611.593C621.632 230.134 628.057 226.602 630.065 216.711V216.005C629.663 215.652 628.86 215.298 628.057 215.298H627.656V215.298Z" fill="#012169"/>
</g>
<g clip-path="url(#clip3_1633_64485)">
<path opacity="0.07" d="M844.192 186.687H715.69C708.863 186.687 703.643 191.279 703.643 197.284V260.866C703.643 266.871 709.265 271.463 715.69 271.463H844.192C851.019 271.463 856.24 266.871 856.24 260.866V197.284C856.24 191.279 850.618 186.687 844.192 186.687Z" fill="black"/>
<path d="M844.19 190.219C848.608 190.219 852.222 193.398 852.222 197.284V260.866C852.222 264.751 848.608 267.93 844.19 267.93H715.688C711.27 267.93 707.656 264.751 707.656 260.866V197.284C707.656 193.398 711.27 190.219 715.688 190.219H844.19Z" fill="white"/>
<path d="M817.285 222.363H816.08C814.474 225.895 813.269 227.661 812.064 232.96H819.694C818.49 227.661 818.49 225.189 817.285 222.363V222.363ZM828.93 243.204H822.104C821.702 243.204 821.702 243.204 821.301 242.851L820.497 239.671L820.096 238.965H810.458C810.057 238.965 809.655 238.965 809.655 239.671L808.45 242.851C808.45 243.204 808.049 243.204 808.049 243.204H799.616L800.419 241.438L812.064 217.418C812.064 215.652 813.269 214.945 815.277 214.945H821.301C821.702 214.945 822.104 214.945 822.104 215.652L827.726 238.612C828.127 240.025 828.529 241.084 828.529 242.497C828.93 242.851 828.93 242.851 828.93 243.204V243.204ZM775.12 242.144L776.726 235.786C777.128 235.786 777.529 236.139 777.529 236.139C780.34 237.199 783.151 237.905 785.962 237.552C786.765 237.552 787.97 237.199 788.773 236.846C790.781 236.139 790.781 234.373 789.175 232.96C788.372 232.254 787.167 231.9 785.962 231.194C784.356 230.487 782.75 229.781 781.545 228.721C776.726 225.189 778.332 220.244 781.143 217.771C783.553 216.358 784.758 214.945 787.97 214.945C792.789 214.945 798.009 214.945 800.419 215.652H800.82C800.419 217.771 800.017 219.537 799.214 221.657C797.206 220.95 795.198 220.244 793.191 220.244C791.986 220.244 790.781 220.244 789.576 220.597C788.773 220.597 788.372 220.95 787.97 221.303C787.167 222.01 787.167 223.069 787.97 223.776L789.978 225.189C791.584 225.895 793.191 226.602 794.395 227.308C796.403 228.368 798.411 230.134 798.813 232.254C799.616 235.433 798.411 238.258 795.198 240.378C793.191 241.791 792.387 242.497 789.576 242.497C783.954 242.497 779.537 242.851 775.923 241.791C775.521 242.497 775.521 242.497 775.12 242.144V242.144ZM761.065 243.204C761.466 240.731 761.466 240.731 761.868 239.671C763.876 231.9 765.884 223.776 767.49 216.005C767.892 215.298 767.892 214.945 768.695 214.945H775.923C775.12 219.184 774.317 222.363 773.112 226.249C771.907 231.547 770.703 236.846 769.096 242.144C769.096 242.851 768.695 242.851 767.892 242.851L761.065 243.204ZM723.719 215.652C723.719 215.298 724.522 214.945 724.923 214.945H738.577C740.585 214.945 742.191 216.005 742.593 217.771L746.207 233.313C746.207 233.666 746.207 233.666 746.608 234.02C746.608 233.666 747.01 233.666 747.01 233.666L755.443 215.652C755.041 215.298 755.443 214.945 755.844 214.945H764.277C764.277 215.298 764.277 215.298 763.876 215.652L751.427 241.438C751.026 242.144 751.026 242.497 750.624 242.851C750.222 243.204 749.419 242.851 748.616 242.851H742.593C742.191 242.851 741.789 242.851 741.789 242.144L735.364 220.244C734.561 219.537 733.356 218.477 731.75 218.124C729.341 217.064 724.923 216.358 724.12 216.358L723.719 215.652Z" fill="#142688"/>
</g>
<g clip-path="url(#clip4_1633_64485)">
<path opacity="0.07" d="M1013.75 186.687H885.242C878.416 186.687 873.195 191.279 873.195 197.284V260.866C873.195 266.871 878.817 271.463 885.242 271.463H1013.75C1020.57 271.463 1025.79 266.871 1025.79 260.866V197.284C1025.79 191.279 1020.17 186.687 1013.75 186.687Z" fill="black"/>
<path d="M1013.75 190.219C1018.16 190.219 1021.78 193.398 1021.78 197.284V260.866C1021.78 264.751 1018.16 267.93 1013.75 267.93H885.242C880.825 267.93 877.211 264.751 877.211 260.866V197.284C877.211 193.398 880.825 190.219 885.242 190.219H1013.75Z" fill="white"/>
<path d="M933.428 253.801C948.953 253.801 961.538 242.73 961.538 229.074C961.538 215.418 948.953 204.348 933.428 204.348C917.904 204.348 905.318 215.418 905.318 229.074C905.318 242.73 917.904 253.801 933.428 253.801Z" fill="#EB001B"/>
<path d="M965.559 253.801C981.084 253.801 993.669 242.73 993.669 229.074C993.669 215.418 981.084 204.348 965.559 204.348C950.034 204.348 937.449 215.418 937.449 229.074C937.449 242.73 950.034 253.801 965.559 253.801Z" fill="#F79E1B"/>
<path d="M961.543 229.075C961.543 220.597 956.725 213.179 949.496 208.94C942.268 213.532 937.449 220.95 937.449 229.075C937.449 237.199 942.268 244.97 949.496 249.209C956.725 244.97 961.543 237.552 961.543 229.075Z" fill="#FF5F00"/>
</g>
<g clip-path="url(#clip5_1633_64485)">
<path opacity="0.07" d="M1183.3 186.687H1054.79C1047.97 186.687 1042.75 191.279 1042.75 197.284V260.866C1042.75 266.871 1048.37 271.463 1054.79 271.463H1183.3C1190.12 271.463 1195.34 266.871 1195.34 260.866V197.284C1195.34 191.279 1189.72 186.687 1183.3 186.687Z" fill="black"/>
<path d="M1183.3 190.219C1187.71 190.219 1191.33 193.398 1191.33 197.284V260.866C1191.33 264.751 1187.71 267.93 1183.3 267.93H1054.79C1050.38 267.93 1046.76 264.751 1046.76 260.866V197.284C1046.76 193.398 1050.38 190.219 1054.79 190.219H1183.3Z" fill="#006FCF"/>
<path d="M1078.77 222.956L1081.88 229.583H1075.68L1078.77 222.956ZM1143.32 223.232H1131.37V226.153H1143.13V230.53H1131.39V233.787H1143.35V236.397L1151.69 228.467L1143.35 220.201L1143.32 223.232ZM1086.85 214.966H1102.89L1106.45 221.801L1109.75 214.945H1151.4L1155.73 219.149L1160.2 214.945H1179.33L1165.2 228.552L1179.19 242.073H1159.77L1155.44 237.87L1150.93 242.073H1083.02L1081.04 237.87H1076.5L1074.51 242.073H1058.81L1072 214.945H1085.78L1086.85 214.966ZM1121.64 218.774H1112.65L1106.62 231.264L1100.1 218.774H1091.17V235.765L1082.9 218.774H1074.9L1065.33 238.244H1071.58L1073.56 234.041H1083.99L1085.97 238.244H1096.89V224.345L1103.92 238.266H1108.7L1115.69 224.387V238.269H1121.54L1121.64 218.771L1121.64 218.774ZM1159.14 228.552L1169.31 218.774H1161.99L1155.56 224.871L1149.34 218.774H1125.68V238.266H1149.01L1155.49 232.126L1161.71 238.266H1169.23L1159.15 228.552H1159.14Z" fill="white"/>
</g>
<g clip-path="url(#clip6_1633_64485)">
<path d="M1350.39 186.687H1226.81C1226.29 186.687 1225.78 186.687 1225.26 186.689C1224.83 186.692 1224.39 186.696 1223.96 186.707C1223.02 186.729 1222.06 186.779 1221.13 186.926C1220.19 187.067 1219.29 187.33 1218.44 187.706C1216.74 188.468 1215.35 189.687 1214.48 191.186C1214.05 191.932 1213.76 192.73 1213.6 193.554C1213.43 194.376 1213.37 195.213 1213.35 196.044C1213.33 196.425 1213.33 196.806 1213.33 197.188C1213.32 197.639 1213.32 198.092 1213.32 198.545V259.603C1213.32 260.056 1213.32 260.509 1213.33 260.962C1213.33 261.343 1213.33 261.725 1213.35 262.106C1213.37 262.935 1213.43 263.773 1213.6 264.594C1213.76 265.418 1214.05 266.216 1214.48 266.962C1214.91 267.708 1215.47 268.388 1216.15 268.979C1216.82 269.57 1217.59 270.064 1218.44 270.443C1219.3 270.829 1220.18 271.075 1221.13 271.224C1222.06 271.371 1223.02 271.42 1223.96 271.443C1224.39 271.451 1224.83 271.456 1225.26 271.459C1225.78 271.462 1226.29 271.462 1226.81 271.462H1350.39C1350.9 271.462 1351.42 271.462 1351.93 271.459C1352.36 271.457 1352.8 271.451 1353.23 271.443C1354.17 271.42 1355.13 271.371 1356.06 271.224C1357 271.083 1357.91 270.82 1358.75 270.443C1360.46 269.679 1361.84 268.461 1362.71 266.962C1363.15 266.205 1363.43 265.429 1363.6 264.594C1363.76 263.773 1363.82 262.935 1363.84 262.106C1363.86 261.725 1363.86 261.343 1363.86 260.962C1363.87 260.509 1363.87 260.056 1363.87 259.603V198.546C1363.87 198.093 1363.87 197.64 1363.86 197.187C1363.86 196.806 1363.86 196.425 1363.84 196.044C1363.82 195.213 1363.76 194.376 1363.6 193.554C1363.44 192.73 1363.14 191.932 1362.71 191.186C1361.84 189.687 1360.46 188.469 1358.75 187.706C1357.91 187.33 1357 187.067 1356.06 186.927C1355.13 186.779 1354.17 186.73 1353.23 186.707C1352.8 186.698 1352.36 186.692 1351.93 186.69C1351.42 186.687 1350.9 186.687 1350.39 186.687Z" fill="black"/>
<path d="M1350.39 189.512L1351.91 189.515C1352.32 189.517 1352.73 189.521 1353.14 189.531C1353.87 189.548 1354.71 189.583 1355.49 189.707C1356.18 189.815 1356.75 189.979 1357.3 190.225C1358.4 190.717 1359.29 191.503 1359.85 192.471C1360.13 192.951 1360.31 193.452 1360.44 194.057C1360.58 194.74 1360.61 195.484 1360.63 196.121C1360.65 196.481 1360.65 196.841 1360.65 197.209C1360.66 197.655 1360.66 198.1 1360.66 198.546V259.604C1360.66 260.05 1360.66 260.495 1360.65 260.949C1360.65 261.309 1360.65 261.669 1360.63 262.029C1360.61 262.666 1360.58 263.409 1360.43 264.101C1360.33 264.65 1360.13 265.183 1359.85 265.681C1359.29 266.649 1358.39 267.435 1357.29 267.926C1356.75 268.171 1356.18 268.335 1355.5 268.442C1354.7 268.568 1353.82 268.602 1353.16 268.618C1352.74 268.626 1352.33 268.632 1351.91 268.634C1351.4 268.637 1350.89 268.637 1350.39 268.637H1226.79C1226.29 268.637 1225.79 268.637 1225.28 268.634C1224.87 268.632 1224.46 268.627 1224.05 268.619C1223.37 268.603 1222.49 268.568 1221.7 268.443C1221.07 268.351 1220.46 268.176 1219.89 267.923C1219.35 267.679 1218.85 267.361 1218.42 266.979C1217.98 266.599 1217.62 266.161 1217.35 265.681C1217.06 265.18 1216.86 264.645 1216.76 264.093C1216.62 263.402 1216.58 262.662 1216.56 262.03C1216.55 261.669 1216.54 261.307 1216.54 260.946L1216.54 259.884V198.266L1216.54 197.206C1216.54 196.844 1216.55 196.482 1216.56 196.121C1216.58 195.487 1216.62 194.747 1216.76 194.051C1216.86 193.499 1217.06 192.965 1217.35 192.466C1217.62 191.988 1217.98 191.551 1218.42 191.167C1218.85 190.786 1219.35 190.468 1219.9 190.223C1220.46 189.973 1221.07 189.798 1221.7 189.707C1222.48 189.583 1223.33 189.548 1224.05 189.531C1224.46 189.521 1224.87 189.517 1225.28 189.515L1226.81 189.512H1350.39" fill="white"/>
<path d="M1252.89 215.304C1254.17 213.9 1255.03 212.014 1254.81 210.088C1252.94 210.169 1250.66 211.172 1249.34 212.578C1248.15 213.781 1247.1 215.745 1247.38 217.591C1249.47 217.751 1251.57 216.669 1252.89 215.304Z" fill="black"/>
<path d="M1254.79 217.952C1251.74 217.792 1249.15 219.472 1247.7 219.472C1246.24 219.472 1244.01 218.032 1241.6 218.071C1238.47 218.111 1235.56 219.671 1233.97 222.151C1230.7 227.111 1233.1 234.472 1236.29 238.512C1237.83 240.512 1239.7 242.712 1242.15 242.633C1244.47 242.553 1245.38 241.313 1248.2 241.313C1251.01 241.313 1251.83 242.633 1254.29 242.593C1256.83 242.553 1258.42 240.593 1259.97 238.593C1261.74 236.313 1262.47 234.113 1262.51 233.993C1262.47 233.953 1257.6 232.312 1257.56 227.391C1257.51 223.271 1261.38 221.311 1261.56 221.19C1259.38 218.352 1255.97 218.032 1254.79 217.952" fill="black"/>
<path d="M1285.15 212.376C1291.77 212.376 1296.38 216.39 1296.38 222.233C1296.38 228.098 1291.68 232.132 1284.99 232.132H1277.66V242.386H1272.36V212.376H1285.15ZM1277.66 228.222H1283.73C1288.35 228.222 1290.97 226.039 1290.97 222.254C1290.97 218.47 1288.34 216.307 1283.76 216.307H1277.66V228.222Z" fill="black"/>
<path d="M1297.7 236.167C1297.7 232.32 1301.03 230.116 1307.18 229.783L1313.77 229.429V227.765C1313.77 225.333 1311.95 224.002 1308.71 224.002C1306.04 224.002 1304.1 225.207 1303.7 227.058H1298.93C1299.07 223.17 1303.23 220.341 1308.86 220.341C1314.91 220.341 1318.86 223.128 1318.86 227.454V242.385H1313.96V238.787H1313.84C1312.45 241.137 1309.38 242.613 1306.04 242.613C1301.13 242.613 1297.7 240.035 1297.7 236.167V236.167ZM1313.77 234.233V232.548L1307.89 232.881C1304.58 233.068 1302.85 234.149 1302.85 236.041C1302.85 237.872 1304.65 239.058 1307.46 239.058C1311.05 239.058 1313.77 237.04 1313.77 234.233V234.233Z" fill="black"/>
<path d="M1323.35 250.411V246.814C1323.68 246.855 1324.49 246.897 1324.91 246.897C1327.25 246.897 1328.58 246.025 1329.38 243.777L1329.86 242.447L1320.89 220.612H1326.43L1332.67 238.329H1332.79L1339.03 220.612H1344.42L1335.13 243.549C1333 248.811 1330.56 250.537 1325.41 250.537C1325.01 250.537 1323.71 250.495 1323.35 250.411V250.411Z" fill="black"/>
</g>
<path d="M12.9094 397.574C13.4205 397.064 14.1136 396.777 14.8363 396.777L58.4243 396.765C59.1499 396.765 59.8459 397.053 60.359 397.566C60.8721 398.079 61.1604 398.775 61.1604 399.5C61.1604 400.226 60.8721 400.922 60.359 401.435C59.8459 401.948 59.1499 402.236 58.4243 402.236L17.5612 402.225V445.816H61.1604V421.307C61.1604 420.582 61.4263 419.886 61.9395 419.373C62.4526 418.86 63.1485 418.572 63.8742 418.572C64.5998 418.572 65.2958 418.86 65.8089 419.373C66.322 419.886 66.6103 420.582 66.6103 421.307V448.54C66.6103 449.262 66.3232 449.955 65.8121 450.466C65.3011 450.977 64.608 451.264 63.8853 451.264H14.8363C14.1136 451.264 13.4205 450.977 12.9094 450.466C12.3984 449.955 12.1113 449.262 12.1113 448.54V399.501C12.1113 398.778 12.3984 398.085 12.9094 397.574Z" fill="#0C94A4"/>
<path d="M34.9288 439.059C34.5598 438.906 34.2249 438.68 33.9435 438.397L21.4393 425.892C20.8691 425.322 20.5488 424.548 20.5488 423.742C20.5488 422.936 20.8691 422.163 21.4393 421.592C22.0094 421.022 26.7491 415.535 27.5554 415.535C28.3617 415.535 29.1349 415.856 29.7051 416.426L38.1524 426.132L73.5602 396.626C74.6489 395.719 76.3016 396.493 76.3016 397.91C76.3016 398.34 76.1357 398.754 75.8385 399.065L38.2428 438.397C37.9614 438.68 37.6265 438.906 37.2575 439.059C36.8886 439.213 36.4928 439.292 36.0931 439.292C35.6934 439.292 35.2977 439.213 34.9288 439.059Z" fill="#0C94A4"/>
<path d="M105.214 444.015V403.939H131.748V410.925H113.687V420.474H129.987V427.46H113.687V444.015H105.214ZM154.682 431.217V413.958H163.019V444.015H155.015V438.555H154.702C154.024 440.316 152.895 441.732 151.317 442.802C149.751 443.871 147.84 444.406 145.583 444.406C143.574 444.406 141.806 443.95 140.28 443.036C138.754 442.123 137.56 440.825 136.699 439.142C135.851 437.459 135.421 435.444 135.408 433.096V413.958H143.744V431.609C143.757 433.383 144.233 434.785 145.172 435.816C146.111 436.846 147.37 437.362 148.949 437.362C149.953 437.362 150.893 437.133 151.767 436.677C152.641 436.207 153.345 435.516 153.88 434.603C154.428 433.689 154.695 432.561 154.682 431.217ZM178.023 403.939V444.015H169.686V403.939H178.023ZM193.036 403.939V444.015H184.7V403.939H193.036ZM212.468 444.015V413.958H220.55V419.202H220.863C221.411 417.337 222.33 415.928 223.622 414.975C224.913 414.01 226.4 413.527 228.083 413.527C228.501 413.527 228.951 413.553 229.434 413.606C229.916 413.658 230.34 413.73 230.705 413.821V421.218C230.314 421.1 229.773 420.996 229.081 420.905C228.39 420.813 227.757 420.768 227.183 420.768C225.957 420.768 224.861 421.035 223.896 421.57C222.943 422.092 222.187 422.822 221.626 423.762C221.078 424.701 220.804 425.784 220.804 427.01V444.015H212.468ZM247.314 444.602C244.222 444.602 241.561 443.976 239.33 442.723C237.112 441.458 235.404 439.671 234.203 437.362C233.003 435.04 232.403 432.293 232.403 429.123C232.403 426.032 233.003 423.318 234.203 420.983C235.404 418.648 237.093 416.828 239.272 415.523C241.463 414.219 244.033 413.567 246.981 413.567C248.964 413.567 250.81 413.886 252.519 414.525C254.241 415.152 255.742 416.097 257.02 417.363C258.312 418.628 259.316 420.22 260.034 422.137C260.751 424.042 261.11 426.273 261.11 428.83V431.119H235.73V425.953H253.263C253.263 424.753 253.002 423.69 252.48 422.764C251.958 421.837 251.234 421.113 250.308 420.592C249.395 420.057 248.332 419.789 247.118 419.789C245.853 419.789 244.731 420.083 243.753 420.67C242.787 421.244 242.031 422.02 241.483 422.998C240.935 423.964 240.654 425.04 240.641 426.227V431.139C240.641 432.626 240.915 433.911 241.463 434.994C242.024 436.077 242.813 436.912 243.831 437.499C244.848 438.086 246.055 438.379 247.451 438.379C248.377 438.379 249.225 438.249 249.995 437.988C250.765 437.727 251.423 437.336 251.971 436.814C252.519 436.292 252.937 435.653 253.224 434.896L260.934 435.405C260.542 437.257 259.74 438.875 258.527 440.258C257.327 441.628 255.774 442.697 253.87 443.467C251.978 444.224 249.793 444.602 247.314 444.602ZM282.713 413.958V420.22H264.162V413.958H282.713ZM268.409 444.015V411.786C268.409 409.607 268.833 407.8 269.681 406.365C270.542 404.93 271.716 403.854 273.203 403.137C274.69 402.419 276.38 402.06 278.271 402.06C279.55 402.06 280.717 402.158 281.774 402.354C282.844 402.55 283.639 402.726 284.161 402.882L282.674 409.144C282.348 409.04 281.944 408.942 281.461 408.851C280.991 408.759 280.509 408.714 280.013 408.714C278.787 408.714 277.932 409.001 277.449 409.575C276.967 410.136 276.725 410.925 276.725 411.942V444.015H268.409ZM307.081 431.217V413.958H315.417V444.015H307.413V438.555H307.1C306.422 440.316 305.293 441.732 303.715 442.802C302.15 443.871 300.238 444.406 297.981 444.406C295.972 444.406 294.205 443.95 292.678 443.036C291.152 442.123 289.958 440.825 289.097 439.142C288.249 437.459 287.819 435.444 287.806 433.096V413.958H296.142V431.609C296.155 433.383 296.631 434.785 297.571 435.816C298.51 436.846 299.769 437.362 301.347 437.362C302.352 437.362 303.291 437.133 304.165 436.677C305.039 436.207 305.744 435.516 306.278 434.603C306.826 433.689 307.094 432.561 307.081 431.217ZM330.421 426.638V444.015H322.085V413.958H330.03V419.261H330.382C331.047 417.513 332.162 416.13 333.728 415.112C335.293 414.082 337.192 413.567 339.422 413.567C341.51 413.567 343.329 414.023 344.882 414.936C346.434 415.85 347.641 417.154 348.502 418.85C349.363 420.533 349.794 422.542 349.794 424.877V444.015H341.457V426.364C341.47 424.525 341.001 423.09 340.049 422.059C339.096 421.016 337.785 420.494 336.115 420.494C334.993 420.494 334.002 420.735 333.141 421.218C332.293 421.7 331.628 422.405 331.145 423.331C330.675 424.244 330.434 425.347 330.421 426.638ZM367.439 444.504C365.156 444.504 363.089 443.917 361.236 442.743C359.397 441.556 357.936 439.814 356.853 437.518C355.783 435.209 355.248 432.378 355.248 429.026C355.248 425.582 355.803 422.718 356.912 420.435C358.02 418.139 359.495 416.424 361.334 415.289C363.186 414.141 365.215 413.567 367.42 413.567C369.103 413.567 370.505 413.854 371.627 414.428C372.762 414.989 373.675 415.693 374.367 416.541C375.071 417.376 375.606 418.198 375.971 419.007H376.226V403.939H384.542V444.015H376.323V439.201H375.971C375.58 440.036 375.025 440.864 374.308 441.686C373.603 442.495 372.684 443.167 371.549 443.702C370.427 444.237 369.057 444.504 367.439 444.504ZM370.081 437.87C371.425 437.87 372.56 437.505 373.486 436.775C374.425 436.031 375.143 434.994 375.638 433.663C376.147 432.333 376.402 430.774 376.402 428.986C376.402 427.199 376.154 425.647 375.658 424.329C375.162 423.012 374.445 421.994 373.506 421.276C372.566 420.559 371.425 420.2 370.081 420.2C368.711 420.2 367.557 420.572 366.617 421.316C365.678 422.059 364.967 423.09 364.485 424.407C364.002 425.725 363.76 427.251 363.76 428.986C363.76 430.735 364.002 432.28 364.485 433.624C364.98 434.955 365.691 435.998 366.617 436.755C367.557 437.499 368.711 437.87 370.081 437.87ZM421.179 413.958V417.872H404.976V413.958H421.179ZM409.829 444.015V409.809C409.829 408.087 410.234 406.652 411.042 405.504C411.851 404.356 412.901 403.495 414.193 402.921C415.485 402.347 416.848 402.06 418.283 402.06C419.418 402.06 420.344 402.152 421.061 402.334C421.779 402.517 422.314 402.687 422.666 402.843L421.335 406.835C421.101 406.757 420.774 406.659 420.357 406.541C419.953 406.424 419.418 406.365 418.752 406.365C417.226 406.365 416.124 406.75 415.445 407.52C414.78 408.29 414.447 409.418 414.447 410.905V444.015H409.829ZM438.624 444.641C435.911 444.641 433.53 443.995 431.482 442.704C429.447 441.412 427.855 439.605 426.707 437.283C425.572 434.961 425.005 432.248 425.005 429.143C425.005 426.012 425.572 423.279 426.707 420.944C427.855 418.609 429.447 416.795 431.482 415.504C433.53 414.212 435.911 413.567 438.624 413.567C441.338 413.567 443.712 414.212 445.747 415.504C447.795 416.795 449.387 418.609 450.522 420.944C451.67 423.279 452.244 426.012 452.244 429.143C452.244 432.248 451.67 434.961 450.522 437.283C449.387 439.605 447.795 441.412 445.747 442.704C443.712 443.995 441.338 444.641 438.624 444.641ZM438.624 440.493C440.685 440.493 442.381 439.964 443.712 438.908C445.043 437.851 446.027 436.462 446.667 434.739C447.306 433.017 447.626 431.152 447.626 429.143C447.626 427.134 447.306 425.262 446.667 423.527C446.027 421.792 445.043 420.389 443.712 419.32C442.381 418.25 440.685 417.715 438.624 417.715C436.563 417.715 434.867 418.25 433.536 419.32C432.206 420.389 431.221 421.792 430.581 423.527C429.942 425.262 429.623 427.134 429.623 429.143C429.623 431.152 429.942 433.017 430.581 434.739C431.221 436.462 432.206 437.851 433.536 438.908C434.867 439.964 436.563 440.493 438.624 440.493ZM459.293 444.015V413.958H463.755V418.498H464.068C464.616 417.011 465.607 415.804 467.042 414.878C468.477 413.951 470.095 413.488 471.895 413.488C472.234 413.488 472.658 413.495 473.167 413.508C473.676 413.521 474.061 413.54 474.322 413.567V418.263C474.165 418.224 473.806 418.165 473.245 418.087C472.697 417.996 472.117 417.95 471.504 417.95C470.043 417.95 468.738 418.256 467.59 418.87C466.455 419.47 465.555 420.305 464.89 421.374C464.237 422.431 463.911 423.638 463.911 424.994V444.015H459.293ZM508.679 413.958V417.872H492.476V413.958H508.679ZM497.329 444.015V409.809C497.329 408.087 497.734 406.652 498.542 405.504C499.351 404.356 500.401 403.495 501.693 402.921C502.984 402.347 504.348 402.06 505.783 402.06C506.918 402.06 507.844 402.152 508.561 402.334C509.279 402.517 509.814 402.687 510.166 402.843L508.835 406.835C508.601 406.757 508.274 406.659 507.857 406.541C507.453 406.424 506.918 406.365 506.252 406.365C504.726 406.365 503.624 406.75 502.945 407.52C502.28 408.29 501.947 409.418 501.947 410.905V444.015H497.329ZM523.135 444.719C521.23 444.719 519.502 444.361 517.949 443.643C516.397 442.913 515.164 441.862 514.251 440.493C513.338 439.11 512.881 437.44 512.881 435.483C512.881 433.761 513.22 432.365 513.899 431.295C514.577 430.213 515.484 429.365 516.619 428.752C517.754 428.138 519.006 427.682 520.376 427.382C521.759 427.069 523.148 426.821 524.544 426.638C526.37 426.403 527.851 426.227 528.986 426.11C530.134 425.979 530.969 425.764 531.491 425.464C532.025 425.164 532.293 424.642 532.293 423.899V423.742C532.293 421.811 531.765 420.311 530.708 419.241C529.664 418.172 528.079 417.637 525.953 417.637C523.748 417.637 522.02 418.119 520.767 419.085C519.515 420.05 518.634 421.081 518.125 422.177L513.742 420.611C514.525 418.785 515.568 417.363 516.873 416.345C518.191 415.315 519.626 414.597 521.178 414.193C522.744 413.775 524.283 413.567 525.796 413.567C526.762 413.567 527.87 413.684 529.123 413.919C530.388 414.141 531.608 414.604 532.782 415.308C533.969 416.013 534.954 417.076 535.737 418.498C536.52 419.92 536.911 421.824 536.911 424.212V444.015H532.293V439.945H532.058C531.745 440.597 531.223 441.295 530.493 442.038C529.762 442.782 528.79 443.415 527.577 443.937C526.364 444.458 524.883 444.719 523.135 444.719ZM523.839 440.571C525.666 440.571 527.205 440.212 528.458 439.495C529.723 438.777 530.675 437.851 531.314 436.716C531.967 435.581 532.293 434.387 532.293 433.135V428.908C532.097 429.143 531.667 429.358 531.001 429.554C530.349 429.737 529.592 429.9 528.731 430.043C527.884 430.174 527.055 430.291 526.246 430.395C525.451 430.487 524.805 430.565 524.309 430.63C523.109 430.787 521.987 431.041 520.943 431.393C519.913 431.732 519.078 432.248 518.439 432.939C517.812 433.618 517.499 434.544 517.499 435.718C517.499 437.323 518.093 438.536 519.28 439.358C520.48 440.166 522 440.571 523.839 440.571ZM564.282 431.726V413.958H568.9V444.015H564.282V438.927H563.969C563.265 440.453 562.169 441.751 560.682 442.821C559.194 443.878 557.316 444.406 555.046 444.406C553.167 444.406 551.498 443.995 550.037 443.173C548.575 442.339 547.427 441.086 546.592 439.416C545.758 437.733 545.34 435.614 545.34 433.057V413.958H549.958V432.744C549.958 434.935 550.571 436.683 551.798 437.988C553.037 439.292 554.616 439.945 556.533 439.945C557.681 439.945 558.849 439.651 560.036 439.064C561.236 438.477 562.241 437.577 563.049 436.364C563.871 435.15 564.282 433.605 564.282 431.726ZM581.977 403.939V444.015H577.359V403.939H581.977ZM603.507 413.958V417.872H587.931V413.958H603.507ZM592.47 406.757H597.089V435.405C597.089 436.709 597.278 437.688 597.656 438.34C598.047 438.979 598.543 439.41 599.143 439.632C599.756 439.84 600.402 439.945 601.081 439.945C601.589 439.945 602.007 439.919 602.333 439.866C602.659 439.801 602.92 439.749 603.116 439.71L604.055 443.858C603.742 443.976 603.305 444.093 602.744 444.211C602.183 444.341 601.472 444.406 600.611 444.406C599.306 444.406 598.028 444.126 596.775 443.565C595.536 443.004 594.506 442.149 593.684 441.001C592.875 439.853 592.47 438.405 592.47 436.657V406.757ZM613.428 455.286C612.645 455.286 611.948 455.221 611.334 455.091C610.721 454.973 610.297 454.856 610.062 454.738L611.237 450.668C612.358 450.955 613.35 451.059 614.211 450.981C615.072 450.903 615.835 450.518 616.5 449.827C617.179 449.148 617.798 448.046 618.359 446.52L619.22 444.171L608.106 413.958H613.115L621.412 437.91H621.725L630.022 413.958H635.032L622.273 448.398C621.699 449.951 620.988 451.236 620.14 452.253C619.292 453.284 618.307 454.047 617.185 454.543C616.076 455.038 614.824 455.286 613.428 455.286ZM656.625 455.286V413.958H661.087V418.733H661.635C661.974 418.211 662.444 417.545 663.044 416.737C663.657 415.915 664.531 415.184 665.666 414.545C666.814 413.893 668.366 413.567 670.323 413.567C672.854 413.567 675.085 414.199 677.016 415.465C678.946 416.73 680.453 418.524 681.536 420.846C682.619 423.168 683.16 425.908 683.16 429.065C683.16 432.248 682.619 435.007 681.536 437.342C680.453 439.664 678.953 441.464 677.035 442.743C675.117 444.008 672.906 444.641 670.401 444.641C668.471 444.641 666.925 444.321 665.764 443.682C664.603 443.03 663.709 442.293 663.083 441.471C662.457 440.636 661.974 439.945 661.635 439.397H661.243V455.286H656.625ZM661.165 428.986C661.165 431.256 661.498 433.259 662.163 434.994C662.828 436.716 663.8 438.066 665.079 439.045C666.357 440.01 667.923 440.493 669.775 440.493C671.706 440.493 673.317 439.984 674.609 438.966C675.913 437.936 676.892 436.553 677.544 434.818C678.209 433.07 678.542 431.126 678.542 428.986C678.542 426.873 678.216 424.968 677.563 423.272C676.924 421.563 675.952 420.213 674.648 419.222C673.356 418.217 671.732 417.715 669.775 417.715C667.897 417.715 666.318 418.191 665.04 419.144C663.761 420.083 662.796 421.4 662.144 423.096C661.491 424.779 661.165 426.743 661.165 428.986ZM690.205 444.015V413.958H694.666V418.498H694.979C695.527 417.011 696.519 415.804 697.954 414.878C699.389 413.951 701.006 413.488 702.807 413.488C703.146 413.488 703.57 413.495 704.079 413.508C704.587 413.521 704.972 413.54 705.233 413.567V418.263C705.077 418.224 704.718 418.165 704.157 418.087C703.609 417.996 703.028 417.95 702.415 417.95C700.954 417.95 699.65 418.256 698.502 418.87C697.367 419.47 696.466 420.305 695.801 421.374C695.149 422.431 694.823 423.638 694.823 424.994V444.015H690.205ZM722.003 444.641C719.29 444.641 716.909 443.995 714.861 442.704C712.826 441.412 711.234 439.605 710.086 437.283C708.951 434.961 708.384 432.248 708.384 429.143C708.384 426.012 708.951 423.279 710.086 420.944C711.234 418.609 712.826 416.795 714.861 415.504C716.909 414.212 719.29 413.567 722.003 413.567C724.717 413.567 727.091 414.212 729.126 415.504C731.174 416.795 732.766 418.609 733.901 420.944C735.049 423.279 735.623 426.012 735.623 429.143C735.623 432.248 735.049 434.961 733.901 437.283C732.766 439.605 731.174 441.412 729.126 442.704C727.091 443.995 724.717 444.641 722.003 444.641ZM722.003 440.493C724.064 440.493 725.76 439.964 727.091 438.908C728.422 437.851 729.407 436.462 730.046 434.739C730.685 433.017 731.005 431.152 731.005 429.143C731.005 427.134 730.685 425.262 730.046 423.527C729.407 421.792 728.422 420.389 727.091 419.32C725.76 418.25 724.064 417.715 722.003 417.715C719.942 417.715 718.246 418.25 716.915 419.32C715.585 420.389 714.6 421.792 713.961 423.527C713.321 425.262 713.002 427.134 713.002 429.143C713.002 431.152 713.321 433.017 713.961 434.739C714.6 436.462 715.585 437.851 716.915 438.908C718.246 439.964 719.942 440.493 722.003 440.493ZM754.022 444.641C751.517 444.641 749.306 444.008 747.388 442.743C745.471 441.464 743.97 439.664 742.888 437.342C741.805 435.007 741.263 432.248 741.263 429.065C741.263 425.908 741.805 423.168 742.888 420.846C743.97 418.524 745.477 416.73 747.408 415.465C749.339 414.199 751.569 413.567 754.1 413.567C756.057 413.567 757.603 413.893 758.738 414.545C759.886 415.184 760.76 415.915 761.36 416.737C761.973 417.545 762.449 418.211 762.789 418.733H763.18V403.939H767.798V444.015H763.336V439.397H762.789C762.449 439.945 761.967 440.636 761.34 441.471C760.714 442.293 759.821 443.03 758.66 443.682C757.499 444.321 755.953 444.641 754.022 444.641ZM754.648 440.493C756.501 440.493 758.066 440.01 759.344 439.045C760.623 438.066 761.595 436.716 762.26 434.994C762.926 433.259 763.258 431.256 763.258 428.986C763.258 426.743 762.932 424.779 762.28 423.096C761.627 421.4 760.662 420.083 759.384 419.144C758.105 418.191 756.527 417.715 754.648 417.715C752.691 417.715 751.061 418.217 749.756 419.222C748.464 420.213 747.493 421.563 746.84 423.272C746.201 424.968 745.881 426.873 745.881 428.986C745.881 431.126 746.208 433.07 746.86 434.818C747.525 436.553 748.504 437.936 749.795 438.966C751.1 439.984 752.717 440.493 754.648 440.493ZM795.839 431.726V413.958H800.458V444.015H795.839V438.927H795.526C794.822 440.453 793.726 441.751 792.239 442.821C790.752 443.878 788.873 444.406 786.603 444.406C784.725 444.406 783.055 443.995 781.594 443.173C780.133 442.339 778.985 441.086 778.15 439.416C777.315 437.733 776.897 435.614 776.897 433.057V413.958H781.515V432.744C781.515 434.935 782.129 436.683 783.355 437.988C784.594 439.292 786.173 439.945 788.09 439.945C789.238 439.945 790.406 439.651 791.593 439.064C792.793 438.477 793.798 437.577 794.607 436.364C795.429 435.15 795.839 433.605 795.839 431.726ZM821.127 444.641C818.309 444.641 815.882 443.976 813.847 442.645C811.812 441.314 810.247 439.482 809.151 437.146C808.055 434.811 807.507 432.143 807.507 429.143C807.507 426.09 808.068 423.396 809.19 421.061C810.325 418.713 811.903 416.88 813.926 415.563C815.961 414.232 818.335 413.567 821.048 413.567C823.162 413.567 825.066 413.958 826.762 414.741C828.458 415.523 829.848 416.619 830.93 418.028C832.013 419.437 832.685 421.081 832.946 422.959H828.328C827.976 421.59 827.193 420.376 825.98 419.32C824.779 418.25 823.162 417.715 821.127 417.715C819.326 417.715 817.748 418.185 816.391 419.124C815.047 420.05 813.997 421.361 813.241 423.057C812.497 424.74 812.125 426.716 812.125 428.986C812.125 431.309 812.491 433.331 813.221 435.053C813.965 436.775 815.008 438.112 816.352 439.064C817.709 440.016 819.3 440.493 821.127 440.493C822.327 440.493 823.416 440.284 824.395 439.866C825.373 439.449 826.201 438.849 826.88 438.066C827.558 437.283 828.041 436.344 828.328 435.248H832.946C832.685 437.022 832.039 438.621 831.009 440.043C829.991 441.451 828.641 442.573 826.958 443.408C825.288 444.23 823.344 444.641 821.127 444.641ZM852.769 413.958V417.872H837.192V413.958H852.769ZM841.732 406.757H846.35V435.405C846.35 436.709 846.539 437.688 846.918 438.34C847.309 438.979 847.805 439.41 848.405 439.632C849.018 439.84 849.664 439.945 850.342 439.945C850.851 439.945 851.268 439.919 851.595 439.866C851.921 439.801 852.182 439.749 852.377 439.71L853.317 443.858C853.004 443.976 852.566 444.093 852.006 444.211C851.445 444.341 850.734 444.406 849.873 444.406C848.568 444.406 847.29 444.126 846.037 443.565C844.798 443.004 843.767 442.149 842.945 441.001C842.137 439.853 841.732 438.405 841.732 436.657V406.757ZM880.468 420.689L876.319 421.864C876.058 421.172 875.673 420.5 875.165 419.848C874.669 419.183 873.991 418.635 873.13 418.204C872.269 417.774 871.166 417.558 869.823 417.558C867.983 417.558 866.45 417.982 865.224 418.83C864.011 419.665 863.404 420.729 863.404 422.02C863.404 423.168 863.822 424.075 864.656 424.74C865.491 425.405 866.796 425.96 868.57 426.403L873.032 427.499C875.719 428.151 877.722 429.149 879.039 430.493C880.357 431.824 881.016 433.539 881.016 435.64C881.016 437.362 880.52 438.901 879.528 440.258C878.55 441.615 877.18 442.684 875.419 443.467C873.658 444.25 871.61 444.641 869.275 444.641C866.209 444.641 863.672 443.976 861.663 442.645C859.653 441.314 858.382 439.371 857.847 436.814L862.23 435.718C862.647 437.336 863.437 438.549 864.598 439.358C865.772 440.166 867.305 440.571 869.196 440.571C871.349 440.571 873.058 440.114 874.323 439.201C875.602 438.275 876.241 437.166 876.241 435.874C876.241 434.831 875.876 433.957 875.145 433.252C874.415 432.535 873.293 432 871.779 431.648L866.77 430.474C864.017 429.821 861.995 428.81 860.704 427.44C859.425 426.058 858.786 424.329 858.786 422.255C858.786 420.559 859.262 419.059 860.214 417.754C861.18 416.45 862.491 415.426 864.148 414.682C865.818 413.938 867.709 413.567 869.823 413.567C872.797 413.567 875.132 414.219 876.828 415.523C878.537 416.828 879.75 418.55 880.468 420.689ZM891.333 444.328C890.368 444.328 889.539 443.982 888.848 443.291C888.156 442.599 887.811 441.771 887.811 440.806C887.811 439.84 888.156 439.012 888.848 438.321C889.539 437.629 890.368 437.283 891.333 437.283C892.298 437.283 893.127 437.629 893.818 438.321C894.51 439.012 894.855 439.84 894.855 440.806C894.855 441.445 894.692 442.032 894.366 442.567C894.053 443.102 893.629 443.532 893.094 443.858C892.572 444.171 891.985 444.328 891.333 444.328ZM951.046 403.939V444.015H946.349L924.511 412.549H924.12V444.015H919.267V403.939H923.963L945.88 435.483H946.271V403.939H951.046ZM972.341 444.641C969.628 444.641 967.247 443.995 965.199 442.704C963.164 441.412 961.572 439.605 960.424 437.283C959.289 434.961 958.722 432.248 958.722 429.143C958.722 426.012 959.289 423.279 960.424 420.944C961.572 418.609 963.164 416.795 965.199 415.504C967.247 414.212 969.628 413.567 972.341 413.567C975.055 413.567 977.429 414.212 979.464 415.504C981.512 416.795 983.104 418.609 984.239 420.944C985.387 423.279 985.961 426.012 985.961 429.143C985.961 432.248 985.387 434.961 984.239 437.283C983.104 439.605 981.512 441.412 979.464 442.704C977.429 443.995 975.055 444.641 972.341 444.641ZM972.341 440.493C974.402 440.493 976.098 439.964 977.429 438.908C978.76 437.851 979.744 436.462 980.384 434.739C981.023 433.017 981.343 431.152 981.343 429.143C981.343 427.134 981.023 425.262 980.384 423.527C979.744 421.792 978.76 420.389 977.429 419.32C976.098 418.25 974.402 417.715 972.341 417.715C970.28 417.715 968.584 418.25 967.253 419.32C965.923 420.389 964.938 421.792 964.299 423.527C963.659 425.262 963.34 427.134 963.34 429.143C963.34 431.152 963.659 433.017 964.299 434.739C964.938 436.462 965.923 437.851 967.253 438.908C968.584 439.964 970.28 440.493 972.341 440.493ZM1029.02 455.286V439.397H1028.62C1028.29 439.945 1027.8 440.636 1027.18 441.471C1026.55 442.293 1025.66 443.03 1024.5 443.682C1023.33 444.321 1021.79 444.641 1019.86 444.641C1017.35 444.641 1015.14 444.008 1013.22 442.743C1011.31 441.464 1009.81 439.664 1008.72 437.342C1007.64 435.007 1007.1 432.248 1007.1 429.065C1007.1 425.908 1007.64 423.168 1008.72 420.846C1009.81 418.524 1011.31 416.73 1013.24 415.465C1015.17 414.199 1017.41 413.567 1019.94 413.567C1021.89 413.567 1023.44 413.893 1024.57 414.545C1025.72 415.184 1026.6 415.915 1027.2 416.737C1027.81 417.545 1028.29 418.211 1028.62 418.733H1029.17V413.958H1033.63V455.286H1029.02ZM1020.48 440.493C1022.34 440.493 1023.9 440.01 1025.18 439.045C1026.46 438.066 1027.43 436.716 1028.1 434.994C1028.76 433.259 1029.09 431.256 1029.09 428.986C1029.09 426.743 1028.77 424.779 1028.12 423.096C1027.46 421.4 1026.5 420.083 1025.22 419.144C1023.94 418.191 1022.36 417.715 1020.48 417.715C1018.53 417.715 1016.9 418.217 1015.59 419.222C1014.3 420.213 1013.33 421.563 1012.68 423.272C1012.04 424.968 1011.72 426.873 1011.72 428.986C1011.72 431.126 1012.04 433.07 1012.7 434.818C1013.36 436.553 1014.34 437.936 1015.63 438.966C1016.94 439.984 1018.55 440.493 1020.48 440.493ZM1061.03 431.726V413.958H1065.65V444.015H1061.03V438.927H1060.72C1060.01 440.453 1058.92 441.751 1057.43 442.821C1055.94 443.878 1054.06 444.406 1051.79 444.406C1049.91 444.406 1048.25 443.995 1046.78 443.173C1045.32 442.339 1044.17 441.086 1043.34 439.416C1042.51 437.733 1042.09 435.614 1042.09 433.057V413.958H1046.71V432.744C1046.71 434.935 1047.32 436.683 1048.55 437.988C1049.78 439.292 1051.36 439.945 1053.28 439.945C1054.43 439.945 1055.6 439.651 1056.78 439.064C1057.98 438.477 1058.99 437.577 1059.8 436.364C1060.62 435.15 1061.03 433.605 1061.03 431.726ZM1086.71 444.641C1083.81 444.641 1081.31 444.002 1079.21 442.723C1077.13 441.432 1075.52 439.632 1074.38 437.323C1073.26 435 1072.7 432.3 1072.7 429.221C1072.7 426.142 1073.26 423.429 1074.38 421.081C1075.52 418.72 1077.09 416.88 1079.12 415.563C1081.15 414.232 1083.53 413.567 1086.24 413.567C1087.8 413.567 1089.35 413.827 1090.88 414.349C1092.4 414.871 1093.79 415.719 1095.04 416.893C1096.3 418.054 1097.29 419.594 1098.04 421.511C1098.78 423.429 1099.15 425.79 1099.15 428.595V430.552H1075.98V426.56H1094.46C1094.46 424.864 1094.12 423.351 1093.44 422.02C1092.77 420.689 1091.82 419.639 1090.58 418.87C1089.36 418.1 1087.91 417.715 1086.24 417.715C1084.4 417.715 1082.81 418.172 1081.46 419.085C1080.13 419.985 1079.11 421.159 1078.39 422.607C1077.67 424.055 1077.32 425.608 1077.32 427.264V429.926C1077.32 432.196 1077.71 434.12 1078.49 435.698C1079.29 437.264 1080.39 438.457 1081.8 439.279C1083.21 440.088 1084.84 440.493 1086.71 440.493C1087.92 440.493 1089.02 440.323 1090 439.984C1090.99 439.632 1091.84 439.11 1092.56 438.418C1093.28 437.714 1093.83 436.84 1094.22 435.796L1098.68 437.049C1098.21 438.562 1097.43 439.892 1096.32 441.041C1095.21 442.175 1093.84 443.063 1092.21 443.702C1090.58 444.328 1088.74 444.641 1086.71 444.641ZM1127.47 420.689L1123.32 421.864C1123.06 421.172 1122.67 420.5 1122.17 419.848C1121.67 419.183 1120.99 418.635 1120.13 418.204C1119.27 417.774 1118.17 417.558 1116.82 417.558C1114.98 417.558 1113.45 417.982 1112.23 418.83C1111.01 419.665 1110.41 420.729 1110.41 422.02C1110.41 423.168 1110.82 424.075 1111.66 424.74C1112.49 425.405 1113.8 425.96 1115.57 426.403L1120.03 427.499C1122.72 428.151 1124.72 429.149 1126.04 430.493C1127.36 431.824 1128.02 433.539 1128.02 435.64C1128.02 437.362 1127.52 438.901 1126.53 440.258C1125.55 441.615 1124.18 442.684 1122.42 443.467C1120.66 444.25 1118.61 444.641 1116.28 444.641C1113.21 444.641 1110.67 443.976 1108.66 442.645C1106.66 441.314 1105.38 439.371 1104.85 436.814L1109.23 435.718C1109.65 437.336 1110.44 438.549 1111.6 439.358C1112.77 440.166 1114.31 440.571 1116.2 440.571C1118.35 440.571 1120.06 440.114 1121.32 439.201C1122.6 438.275 1123.24 437.166 1123.24 435.874C1123.24 434.831 1122.88 433.957 1122.15 433.252C1121.42 432.535 1120.29 432 1118.78 431.648L1113.77 430.474C1111.02 429.821 1109 428.81 1107.71 427.44C1106.43 426.058 1105.79 424.329 1105.79 422.255C1105.79 420.559 1106.26 419.059 1107.22 417.754C1108.18 416.45 1109.49 415.426 1111.15 414.682C1112.82 413.938 1114.71 413.567 1116.82 413.567C1119.8 413.567 1122.13 414.219 1123.83 415.523C1125.54 416.828 1126.75 418.55 1127.47 420.689ZM1148.04 413.958V417.872H1132.46V413.958H1148.04ZM1137 406.757H1141.62V435.405C1141.62 436.709 1141.81 437.688 1142.19 438.34C1142.58 438.979 1143.08 439.41 1143.68 439.632C1144.29 439.84 1144.94 439.945 1145.61 439.945C1146.12 439.945 1146.54 439.919 1146.87 439.866C1147.19 439.801 1147.45 439.749 1147.65 439.71L1148.59 443.858C1148.28 443.976 1147.84 444.093 1147.28 444.211C1146.72 444.341 1146.01 444.406 1145.14 444.406C1143.84 444.406 1142.56 444.126 1141.31 443.565C1140.07 443.004 1139.04 442.149 1138.22 441.001C1137.41 439.853 1137 438.405 1137 436.657V406.757ZM1154.99 444.015V413.958H1159.61V444.015H1154.99ZM1157.34 408.948C1156.44 408.948 1155.66 408.642 1155.01 408.029C1154.37 407.416 1154.05 406.678 1154.05 405.817C1154.05 404.956 1154.37 404.219 1155.01 403.606C1155.66 402.993 1156.44 402.687 1157.34 402.687C1158.24 402.687 1159.01 402.993 1159.64 403.606C1160.3 404.219 1160.62 404.956 1160.62 405.817C1160.62 406.678 1160.3 407.416 1159.64 408.029C1159.01 408.642 1158.24 408.948 1157.34 408.948ZM1180.27 444.641C1177.56 444.641 1175.18 443.995 1173.13 442.704C1171.1 441.412 1169.51 439.605 1168.36 437.283C1167.22 434.961 1166.65 432.248 1166.65 429.143C1166.65 426.012 1167.22 423.279 1168.36 420.944C1169.51 418.609 1171.1 416.795 1173.13 415.504C1175.18 414.212 1177.56 413.567 1180.27 413.567C1182.99 413.567 1185.36 414.212 1187.4 415.504C1189.45 416.795 1191.04 418.609 1192.17 420.944C1193.32 423.279 1193.89 426.012 1193.89 429.143C1193.89 432.248 1193.32 434.961 1192.17 437.283C1191.04 439.605 1189.45 441.412 1187.4 442.704C1185.36 443.995 1182.99 444.641 1180.27 444.641ZM1180.27 440.493C1182.34 440.493 1184.03 439.964 1185.36 438.908C1186.69 437.851 1187.68 436.462 1188.32 434.739C1188.96 433.017 1189.28 431.152 1189.28 429.143C1189.28 427.134 1188.96 425.262 1188.32 423.527C1187.68 421.792 1186.69 420.389 1185.36 419.32C1184.03 418.25 1182.34 417.715 1180.27 417.715C1178.21 417.715 1176.52 418.25 1175.19 419.32C1173.86 420.389 1172.87 421.792 1172.23 423.527C1171.59 425.262 1171.27 427.134 1171.27 429.143C1171.27 431.152 1171.59 433.017 1172.23 434.739C1172.87 436.462 1173.86 437.851 1175.19 438.908C1176.52 439.964 1178.21 440.493 1180.27 440.493ZM1205.56 425.934V444.015H1200.94V413.958H1205.41V418.654H1205.8C1206.5 417.128 1207.57 415.902 1209.01 414.975C1210.44 414.036 1212.29 413.567 1214.56 413.567C1216.6 413.567 1218.38 413.984 1219.91 414.819C1221.43 415.641 1222.62 416.893 1223.47 418.576C1224.31 420.246 1224.74 422.359 1224.74 424.916V444.015H1220.12V425.229C1220.12 422.868 1219.51 421.029 1218.28 419.711C1217.05 418.38 1215.37 417.715 1213.23 417.715C1211.76 417.715 1210.44 418.035 1209.28 418.674C1208.13 419.313 1207.22 420.246 1206.56 421.472C1205.89 422.698 1205.56 424.186 1205.56 425.934ZM1257.52 444.719C1255.62 444.719 1253.89 444.361 1252.33 443.643C1250.78 442.913 1249.55 441.862 1248.64 440.493C1247.72 439.11 1247.27 437.44 1247.27 435.483C1247.27 433.761 1247.61 432.365 1248.28 431.295C1248.96 430.213 1249.87 429.365 1251 428.752C1252.14 428.138 1253.39 427.682 1254.76 427.382C1256.14 427.069 1257.53 426.821 1258.93 426.638C1260.76 426.403 1262.24 426.227 1263.37 426.11C1264.52 425.979 1265.35 425.764 1265.88 425.464C1266.41 425.164 1266.68 424.642 1266.68 423.899V423.742C1266.68 421.811 1266.15 420.311 1265.09 419.241C1264.05 418.172 1262.46 417.637 1260.34 417.637C1258.13 417.637 1256.41 418.119 1255.15 419.085C1253.9 420.05 1253.02 421.081 1252.51 422.177L1248.13 420.611C1248.91 418.785 1249.95 417.363 1251.26 416.345C1252.58 415.315 1254.01 414.597 1255.56 414.193C1257.13 413.775 1258.67 413.567 1260.18 413.567C1261.15 413.567 1262.26 413.684 1263.51 413.919C1264.77 414.141 1265.99 414.604 1267.17 415.308C1268.35 416.013 1269.34 417.076 1270.12 418.498C1270.91 419.92 1271.3 421.824 1271.3 424.212V444.015H1266.68V439.945H1266.44C1266.13 440.597 1265.61 441.295 1264.88 442.038C1264.15 442.782 1263.18 443.415 1261.96 443.937C1260.75 444.458 1259.27 444.719 1257.52 444.719ZM1258.22 440.571C1260.05 440.571 1261.59 440.212 1262.84 439.495C1264.11 438.777 1265.06 437.851 1265.7 436.716C1266.35 435.581 1266.68 434.387 1266.68 433.135V428.908C1266.48 429.143 1266.05 429.358 1265.39 429.554C1264.73 429.737 1263.98 429.9 1263.12 430.043C1262.27 430.174 1261.44 430.291 1260.63 430.395C1259.84 430.487 1259.19 430.565 1258.69 430.63C1257.49 430.787 1256.37 431.041 1255.33 431.393C1254.3 431.732 1253.46 432.248 1252.82 432.939C1252.2 433.618 1251.88 434.544 1251.88 435.718C1251.88 437.323 1252.48 438.536 1253.67 439.358C1254.87 440.166 1256.39 440.571 1258.22 440.571ZM1301.02 420.689L1296.87 421.864C1296.61 421.172 1296.22 420.5 1295.71 419.848C1295.22 419.183 1294.54 418.635 1293.68 418.204C1292.82 417.774 1291.71 417.558 1290.37 417.558C1288.53 417.558 1287 417.982 1285.77 418.83C1284.56 419.665 1283.95 420.729 1283.95 422.02C1283.95 423.168 1284.37 424.075 1285.2 424.74C1286.04 425.405 1287.34 425.96 1289.12 426.403L1293.58 427.499C1296.27 428.151 1298.27 429.149 1299.59 430.493C1300.91 431.824 1301.56 433.539 1301.56 435.64C1301.56 437.362 1301.07 438.901 1300.08 440.258C1299.1 441.615 1297.73 442.684 1295.97 443.467C1294.21 444.25 1292.16 444.641 1289.82 444.641C1286.76 444.641 1284.22 443.976 1282.21 442.645C1280.2 441.314 1278.93 439.371 1278.4 436.814L1282.78 435.718C1283.2 437.336 1283.99 438.549 1285.15 439.358C1286.32 440.166 1287.85 440.571 1289.74 440.571C1291.9 440.571 1293.61 440.114 1294.87 439.201C1296.15 438.275 1296.79 437.166 1296.79 435.874C1296.79 434.831 1296.42 433.957 1295.69 433.252C1294.96 432.535 1293.84 432 1292.33 431.648L1287.32 430.474C1284.57 429.821 1282.54 428.81 1281.25 427.44C1279.97 426.058 1279.33 424.329 1279.33 422.255C1279.33 420.559 1279.81 419.059 1280.76 417.754C1281.73 416.45 1283.04 415.426 1284.7 414.682C1286.37 413.938 1288.26 413.567 1290.37 413.567C1293.35 413.567 1295.68 414.219 1297.38 415.523C1299.09 416.828 1300.3 418.55 1301.02 420.689ZM1312.82 433.057L1312.74 427.343H1313.68L1326.83 413.958H1332.55L1318.53 428.125H1318.14L1312.82 433.057ZM1308.52 444.015V403.939H1313.13V444.015H1308.52ZM1327.61 444.015L1315.87 429.143L1319.16 425.934L1333.48 444.015H1327.61ZM1349.85 444.641C1346.96 444.641 1344.46 444.002 1342.36 442.723C1340.27 441.432 1338.66 439.632 1337.53 437.323C1336.4 435 1335.84 432.3 1335.84 429.221C1335.84 426.142 1336.4 423.429 1337.53 421.081C1338.66 418.72 1340.24 416.88 1342.26 415.563C1344.3 414.232 1346.67 413.567 1349.38 413.567C1350.95 413.567 1352.5 413.827 1354.02 414.349C1355.55 414.871 1356.94 415.719 1358.19 416.893C1359.44 418.054 1360.44 419.594 1361.18 421.511C1361.93 423.429 1362.3 425.79 1362.3 428.595V430.552H1339.13V426.56H1357.6C1357.6 424.864 1357.26 423.351 1356.59 422.02C1355.92 420.689 1354.97 419.639 1353.73 418.87C1352.5 418.1 1351.05 417.715 1349.38 417.715C1347.54 417.715 1345.95 418.172 1344.61 419.085C1343.28 419.985 1342.25 421.159 1341.54 422.607C1340.82 424.055 1340.46 425.608 1340.46 427.264V429.926C1340.46 432.196 1340.85 434.12 1341.63 435.698C1342.43 437.264 1343.53 438.457 1344.94 439.279C1346.35 440.088 1347.99 440.493 1349.85 440.493C1351.07 440.493 1352.16 440.323 1353.14 439.984C1354.13 439.632 1354.99 439.11 1355.7 438.418C1356.42 437.714 1356.98 436.84 1357.37 435.796L1361.83 437.049C1361.36 438.562 1360.57 439.892 1359.46 441.041C1358.35 442.175 1356.98 443.063 1355.35 443.702C1353.72 444.328 1351.89 444.641 1349.85 444.641ZM1380.67 444.641C1378.17 444.641 1375.96 444.008 1374.04 442.743C1372.12 441.464 1370.62 439.664 1369.54 437.342C1368.46 435.007 1367.92 432.248 1367.92 429.065C1367.92 425.908 1368.46 423.168 1369.54 420.846C1370.62 418.524 1372.13 416.73 1374.06 415.465C1375.99 414.199 1378.22 413.567 1380.75 413.567C1382.71 413.567 1384.25 413.893 1385.39 414.545C1386.54 415.184 1387.41 415.915 1388.01 416.737C1388.63 417.545 1389.1 418.211 1389.44 418.733H1389.83V403.939H1394.45V444.015H1389.99V439.397H1389.44C1389.1 439.945 1388.62 440.636 1387.99 441.471C1387.37 442.293 1386.47 443.03 1385.31 443.682C1384.15 444.321 1382.6 444.641 1380.67 444.641ZM1381.3 440.493C1383.15 440.493 1384.72 440.01 1386 439.045C1387.27 438.066 1388.25 436.716 1388.91 434.994C1389.58 433.259 1389.91 431.256 1389.91 428.986C1389.91 426.743 1389.58 424.779 1388.93 423.096C1388.28 421.4 1387.31 420.083 1386.04 419.144C1384.76 418.191 1383.18 417.715 1381.3 417.715C1379.34 417.715 1377.71 418.217 1376.41 419.222C1375.12 420.213 1374.14 421.563 1373.49 423.272C1372.85 424.968 1372.53 426.873 1372.53 428.986C1372.53 431.126 1372.86 433.07 1373.51 434.818C1374.18 436.553 1375.16 437.936 1376.45 438.966C1377.75 439.984 1379.37 440.493 1381.3 440.493Z" fill="#3B4148"/>
<path d="M12.9094 499.574C13.4205 499.064 14.1136 498.777 14.8363 498.777L58.4243 498.765C59.1499 498.765 59.8459 499.053 60.359 499.566C60.8721 500.079 61.1604 500.775 61.1604 501.5C61.1604 502.226 60.8721 502.922 60.359 503.435C59.8459 503.948 59.1499 504.236 58.4243 504.236L17.5612 504.225V547.816H61.1604V523.307C61.1604 522.582 61.4263 521.886 61.9395 521.373C62.4526 520.86 63.1485 520.572 63.8742 520.572C64.5998 520.572 65.2958 520.86 65.8089 521.373C66.322 521.886 66.6103 522.582 66.6103 523.307V550.54C66.6103 551.262 66.3232 551.955 65.8121 552.466C65.3011 552.977 64.608 553.264 63.8853 553.264H14.8363C14.1136 553.264 13.4205 552.977 12.9094 552.466C12.3984 551.955 12.1113 551.262 12.1113 550.54V501.501C12.1113 500.778 12.3984 500.085 12.9094 499.574Z" fill="#0C94A4"/>
<path d="M34.9288 541.059C34.5598 540.906 34.2249 540.68 33.9435 540.397L21.4393 527.892C20.8691 527.322 20.5488 526.548 20.5488 525.742C20.5488 524.936 20.8691 524.163 21.4393 523.592C22.0094 523.022 26.7491 517.535 27.5554 517.535C28.3617 517.535 29.1349 517.856 29.7051 518.426L38.1524 528.132L73.5602 498.626C74.6489 497.719 76.3016 498.493 76.3016 499.91C76.3016 500.34 76.1357 500.754 75.8385 501.065L38.2428 540.397C37.9614 540.68 37.6265 540.906 37.2575 541.059C36.8886 541.213 36.4928 541.292 36.0931 541.292C35.6934 541.292 35.2977 541.213 34.9288 541.059Z" fill="#0C94A4"/>
<path d="M105.214 546.015V505.939H131.748V512.925H113.687V522.474H129.987V529.46H113.687V546.015H105.214ZM154.682 533.217V515.958H163.019V546.015H155.015V540.555H154.702C154.024 542.316 152.895 543.732 151.317 544.802C149.751 545.871 147.84 546.406 145.583 546.406C143.574 546.406 141.806 545.95 140.28 545.036C138.754 544.123 137.56 542.825 136.699 541.142C135.851 539.459 135.421 537.444 135.408 535.096V515.958H143.744V533.609C143.757 535.383 144.233 536.785 145.172 537.816C146.111 538.846 147.37 539.362 148.949 539.362C149.953 539.362 150.893 539.133 151.767 538.677C152.641 538.207 153.345 537.516 153.88 536.603C154.428 535.689 154.695 534.561 154.682 533.217ZM178.023 505.939V546.015H169.686V505.939H178.023ZM193.036 505.939V546.015H184.7V505.939H193.036ZM212.468 546.015V515.958H220.55V521.202H220.863C221.411 519.337 222.33 517.928 223.622 516.975C224.913 516.01 226.4 515.527 228.083 515.527C228.501 515.527 228.951 515.553 229.434 515.606C229.916 515.658 230.34 515.73 230.705 515.821V523.218C230.314 523.1 229.773 522.996 229.081 522.905C228.39 522.813 227.757 522.768 227.183 522.768C225.957 522.768 224.861 523.035 223.896 523.57C222.943 524.092 222.187 524.822 221.626 525.762C221.078 526.701 220.804 527.784 220.804 529.01V546.015H212.468ZM247.314 546.602C244.222 546.602 241.561 545.976 239.33 544.723C237.112 543.458 235.404 541.671 234.203 539.362C233.003 537.04 232.403 534.293 232.403 531.123C232.403 528.032 233.003 525.318 234.203 522.983C235.404 520.648 237.093 518.828 239.272 517.523C241.463 516.219 244.033 515.567 246.981 515.567C248.964 515.567 250.81 515.886 252.519 516.525C254.241 517.152 255.742 518.097 257.02 519.363C258.312 520.628 259.316 522.22 260.034 524.137C260.751 526.042 261.11 528.273 261.11 530.83V533.119H235.73V527.953H253.263C253.263 526.753 253.002 525.69 252.48 524.764C251.958 523.837 251.234 523.113 250.308 522.592C249.395 522.057 248.332 521.789 247.118 521.789C245.853 521.789 244.731 522.083 243.753 522.67C242.787 523.244 242.031 524.02 241.483 524.998C240.935 525.964 240.654 527.04 240.641 528.227V533.139C240.641 534.626 240.915 535.911 241.463 536.994C242.024 538.077 242.813 538.912 243.831 539.499C244.848 540.086 246.055 540.379 247.451 540.379C248.377 540.379 249.225 540.249 249.995 539.988C250.765 539.727 251.423 539.336 251.971 538.814C252.519 538.292 252.937 537.653 253.224 536.896L260.934 537.405C260.542 539.257 259.74 540.875 258.527 542.258C257.327 543.628 255.774 544.697 253.87 545.467C251.978 546.224 249.793 546.602 247.314 546.602ZM282.713 515.958V522.22H264.162V515.958H282.713ZM268.409 546.015V513.786C268.409 511.607 268.833 509.8 269.681 508.365C270.542 506.93 271.716 505.854 273.203 505.137C274.69 504.419 276.38 504.06 278.271 504.06C279.55 504.06 280.717 504.158 281.774 504.354C282.844 504.55 283.639 504.726 284.161 504.882L282.674 511.144C282.348 511.04 281.944 510.942 281.461 510.851C280.991 510.759 280.509 510.714 280.013 510.714C278.787 510.714 277.932 511.001 277.449 511.575C276.967 512.136 276.725 512.925 276.725 513.942V546.015H268.409ZM307.081 533.217V515.958H315.417V546.015H307.413V540.555H307.1C306.422 542.316 305.293 543.732 303.715 544.802C302.15 545.871 300.238 546.406 297.981 546.406C295.972 546.406 294.205 545.95 292.678 545.036C291.152 544.123 289.958 542.825 289.097 541.142C288.249 539.459 287.819 537.444 287.806 535.096V515.958H296.142V533.609C296.155 535.383 296.631 536.785 297.571 537.816C298.51 538.846 299.769 539.362 301.347 539.362C302.352 539.362 303.291 539.133 304.165 538.677C305.039 538.207 305.744 537.516 306.278 536.603C306.826 535.689 307.094 534.561 307.081 533.217ZM330.421 528.638V546.015H322.085V515.958H330.03V521.261H330.382C331.047 519.513 332.162 518.13 333.728 517.112C335.293 516.082 337.192 515.567 339.422 515.567C341.51 515.567 343.329 516.023 344.882 516.936C346.434 517.85 347.641 519.154 348.502 520.85C349.363 522.533 349.794 524.542 349.794 526.877V546.015H341.457V528.364C341.47 526.525 341.001 525.09 340.049 524.059C339.096 523.016 337.785 522.494 336.115 522.494C334.993 522.494 334.002 522.735 333.141 523.218C332.293 523.7 331.628 524.405 331.145 525.331C330.675 526.244 330.434 527.347 330.421 528.638ZM367.439 546.504C365.156 546.504 363.089 545.917 361.236 544.743C359.397 543.556 357.936 541.814 356.853 539.518C355.783 537.209 355.248 534.378 355.248 531.026C355.248 527.582 355.803 524.718 356.912 522.435C358.02 520.139 359.495 518.424 361.334 517.289C363.186 516.141 365.215 515.567 367.42 515.567C369.103 515.567 370.505 515.854 371.627 516.428C372.762 516.989 373.675 517.693 374.367 518.541C375.071 519.376 375.606 520.198 375.971 521.007H376.226V505.939H384.542V546.015H376.323V541.201H375.971C375.58 542.036 375.025 542.864 374.308 543.686C373.603 544.495 372.684 545.167 371.549 545.702C370.427 546.237 369.057 546.504 367.439 546.504ZM370.081 539.87C371.425 539.87 372.56 539.505 373.486 538.775C374.425 538.031 375.143 536.994 375.638 535.663C376.147 534.333 376.402 532.774 376.402 530.986C376.402 529.199 376.154 527.647 375.658 526.329C375.162 525.012 374.445 523.994 373.506 523.276C372.566 522.559 371.425 522.2 370.081 522.2C368.711 522.2 367.557 522.572 366.617 523.316C365.678 524.059 364.967 525.09 364.485 526.407C364.002 527.725 363.76 529.251 363.76 530.986C363.76 532.735 364.002 534.28 364.485 535.624C364.98 536.955 365.691 537.998 366.617 538.755C367.557 539.499 368.711 539.87 370.081 539.87ZM407.794 546.015V515.958H412.412V546.015H407.794ZM410.142 510.948C409.242 510.948 408.466 510.642 407.814 510.029C407.174 509.416 406.855 508.678 406.855 507.817C406.855 506.956 407.174 506.219 407.814 505.606C408.466 504.993 409.242 504.687 410.142 504.687C411.042 504.687 411.812 504.993 412.451 505.606C413.104 506.219 413.43 506.956 413.43 507.817C413.43 508.678 413.104 509.416 412.451 510.029C411.812 510.642 411.042 510.948 410.142 510.948ZM434.255 515.958V519.872H418.053V515.958H434.255ZM422.906 546.015V511.809C422.906 510.087 423.31 508.652 424.119 507.504C424.928 506.356 425.978 505.495 427.27 504.921C428.561 504.347 429.924 504.06 431.359 504.06C432.494 504.06 433.421 504.152 434.138 504.334C434.856 504.517 435.39 504.687 435.743 504.843L434.412 508.835C434.177 508.757 433.851 508.659 433.434 508.541C433.029 508.424 432.494 508.365 431.829 508.365C430.303 508.365 429.2 508.75 428.522 509.52C427.857 510.29 427.524 511.418 427.524 512.905V546.015H422.906ZM469.297 515.958V519.872H453.721V515.958H469.297ZM458.261 508.757H462.879V537.405C462.879 538.709 463.068 539.688 463.447 540.34C463.838 540.979 464.334 541.41 464.934 541.632C465.547 541.84 466.193 541.945 466.871 541.945C467.38 541.945 467.797 541.919 468.123 541.866C468.45 541.801 468.71 541.749 468.906 541.71L469.845 545.858C469.532 545.976 469.095 546.093 468.534 546.211C467.973 546.341 467.262 546.406 466.401 546.406C465.097 546.406 463.818 546.126 462.566 545.565C461.327 545.004 460.296 544.149 459.474 543.001C458.665 541.853 458.261 540.405 458.261 538.657V508.757ZM481.508 527.934V546.015H476.89V505.939H481.508V520.654H481.9C482.604 519.102 483.661 517.869 485.07 516.956C486.492 516.03 488.383 515.567 490.744 515.567C492.793 515.567 494.586 515.977 496.126 516.799C497.665 517.608 498.859 518.854 499.707 520.537C500.568 522.207 500.998 524.333 500.998 526.916V546.015H496.38V527.229C496.38 524.842 495.76 522.996 494.521 521.691C493.295 520.374 491.592 519.715 489.414 519.715C487.9 519.715 486.544 520.035 485.344 520.674C484.156 521.313 483.217 522.246 482.526 523.472C481.847 524.698 481.508 526.186 481.508 527.934ZM522.049 546.641C519.153 546.641 516.655 546.002 514.554 544.723C512.467 543.432 510.856 541.632 509.721 539.323C508.599 537 508.038 534.3 508.038 531.221C508.038 528.142 508.599 525.429 509.721 523.081C510.856 520.72 512.434 518.88 514.456 517.563C516.491 516.232 518.866 515.567 521.579 515.567C523.145 515.567 524.691 515.827 526.217 516.349C527.743 516.871 529.133 517.719 530.385 518.893C531.637 520.054 532.635 521.594 533.379 523.511C534.123 525.429 534.494 527.79 534.494 530.595V532.552H511.325V528.56H529.798C529.798 526.864 529.459 525.351 528.78 524.02C528.115 522.689 527.163 521.639 525.923 520.87C524.697 520.1 523.249 519.715 521.579 519.715C519.74 519.715 518.148 520.172 516.805 521.085C515.474 521.985 514.45 523.159 513.732 524.607C513.015 526.055 512.656 527.608 512.656 529.264V531.926C512.656 534.196 513.047 536.12 513.83 537.698C514.626 539.264 515.728 540.457 517.137 541.279C518.546 542.088 520.183 542.493 522.049 542.493C523.262 542.493 524.358 542.323 525.336 541.984C526.328 541.632 527.182 541.11 527.9 540.418C528.617 539.714 529.172 538.84 529.563 537.796L534.025 539.049C533.555 540.562 532.766 541.892 531.657 543.041C530.548 544.175 529.178 545.063 527.548 545.702C525.917 546.328 524.084 546.641 522.049 546.641ZM557.018 546.015V515.958H561.636V546.015H557.018ZM559.366 510.948C558.466 510.948 557.689 510.642 557.037 510.029C556.398 509.416 556.078 508.678 556.078 507.817C556.078 506.956 556.398 506.219 557.037 505.606C557.689 504.993 558.466 504.687 559.366 504.687C560.266 504.687 561.036 504.993 561.675 505.606C562.327 506.219 562.653 506.956 562.653 507.817C562.653 508.678 562.327 509.416 561.675 510.029C561.036 510.642 560.266 510.948 559.366 510.948ZM583.166 515.958V519.872H567.589V515.958H583.166ZM572.129 508.757H576.747V537.405C576.747 538.709 576.936 539.688 577.315 540.34C577.706 540.979 578.202 541.41 578.802 541.632C579.415 541.84 580.061 541.945 580.739 541.945C581.248 541.945 581.665 541.919 581.992 541.866C582.318 541.801 582.579 541.749 582.774 541.71L583.714 545.858C583.401 545.976 582.964 546.093 582.403 546.211C581.842 546.341 581.131 546.406 580.27 546.406C578.965 546.406 577.687 546.126 576.434 545.565C575.195 545.004 574.164 544.149 573.342 543.001C572.534 541.853 572.129 540.405 572.129 538.657V508.757ZM602.392 546.641C599.496 546.641 596.997 546.002 594.897 544.723C592.81 543.432 591.199 541.632 590.064 539.323C588.942 537 588.381 534.3 588.381 531.221C588.381 528.142 588.942 525.429 590.064 523.081C591.199 520.72 592.777 518.88 594.799 517.563C596.834 516.232 599.208 515.567 601.922 515.567C603.487 515.567 605.033 515.827 606.56 516.349C608.086 516.871 609.475 517.719 610.728 518.893C611.98 520.054 612.978 521.594 613.722 523.511C614.465 525.429 614.837 527.79 614.837 530.595V532.552H591.668V528.56H610.141C610.141 526.864 609.802 525.351 609.123 524.02C608.458 522.689 607.505 521.639 606.266 520.87C605.04 520.1 603.592 519.715 601.922 519.715C600.083 519.715 598.491 520.172 597.147 521.085C595.817 521.985 594.793 523.159 594.075 524.607C593.358 526.055 592.999 527.608 592.999 529.264V531.926C592.999 534.196 593.39 536.12 594.173 537.698C594.969 539.264 596.071 540.457 597.48 541.279C598.889 542.088 600.526 542.493 602.392 542.493C603.605 542.493 604.701 542.323 605.679 541.984C606.671 541.632 607.525 541.11 608.243 540.418C608.96 539.714 609.514 538.84 609.906 537.796L614.367 539.049C613.898 540.562 613.109 541.892 612 543.041C610.891 544.175 609.521 545.063 607.89 545.702C606.26 546.328 604.427 546.641 602.392 546.641ZM621.862 546.015V515.958H626.324V520.654H626.715C627.341 519.05 628.352 517.804 629.748 516.917C631.144 516.017 632.82 515.567 634.777 515.567C636.76 515.567 638.41 516.017 639.728 516.917C641.059 517.804 642.096 519.05 642.839 520.654H643.153C643.922 519.102 645.077 517.869 646.616 516.956C648.155 516.03 650.001 515.567 652.154 515.567C654.841 515.567 657.04 516.408 658.748 518.091C660.457 519.761 661.312 522.363 661.312 525.899V546.015H656.694V525.899C656.694 523.681 656.087 522.096 654.874 521.144C653.661 520.191 652.232 519.715 650.588 519.715C648.475 519.715 646.838 520.354 645.677 521.633C644.516 522.898 643.935 524.503 643.935 526.447V546.015H639.239V525.429C639.239 523.72 638.684 522.344 637.576 521.3C636.467 520.243 635.038 519.715 633.29 519.715C632.09 519.715 630.968 520.035 629.924 520.674C628.894 521.313 628.059 522.2 627.42 523.335C626.793 524.457 626.48 525.755 626.48 527.229V546.015H621.862ZM685.254 546.015V515.958H689.872V546.015H685.254ZM687.602 510.948C686.702 510.948 685.926 510.642 685.273 510.029C684.634 509.416 684.315 508.678 684.315 507.817C684.315 506.956 684.634 506.219 685.273 505.606C685.926 504.993 686.702 504.687 687.602 504.687C688.502 504.687 689.272 504.993 689.911 505.606C690.563 506.219 690.889 506.956 690.889 507.817C690.889 508.678 690.563 509.416 689.911 510.029C689.272 510.642 688.502 510.948 687.602 510.948ZM719.621 522.689L715.472 523.864C715.211 523.172 714.826 522.5 714.318 521.848C713.822 521.183 713.144 520.635 712.283 520.204C711.422 519.774 710.319 519.558 708.976 519.558C707.136 519.558 705.603 519.982 704.377 520.83C703.164 521.665 702.557 522.729 702.557 524.02C702.557 525.168 702.975 526.075 703.809 526.74C704.644 527.405 705.949 527.96 707.723 528.403L712.185 529.499C714.872 530.151 716.875 531.149 718.192 532.493C719.51 533.824 720.169 535.539 720.169 537.64C720.169 539.362 719.673 540.901 718.681 542.258C717.703 543.615 716.333 544.684 714.572 545.467C712.811 546.25 710.763 546.641 708.428 546.641C705.362 546.641 702.825 545.976 700.816 544.645C698.807 543.314 697.535 541.371 697 538.814L701.383 537.718C701.8 539.336 702.59 540.549 703.751 541.358C704.925 542.166 706.458 542.571 708.349 542.571C710.502 542.571 712.211 542.114 713.476 541.201C714.755 540.275 715.394 539.166 715.394 537.874C715.394 536.831 715.029 535.957 714.298 535.252C713.568 534.535 712.446 534 710.932 533.648L705.923 532.474C703.17 531.821 701.148 530.81 699.857 529.44C698.578 528.058 697.939 526.329 697.939 524.255C697.939 522.559 698.415 521.059 699.367 519.754C700.333 518.45 701.644 517.426 703.301 516.682C704.971 515.938 706.862 515.567 708.976 515.567C711.95 515.567 714.285 516.219 715.981 517.523C717.69 518.828 718.903 520.55 719.621 522.689ZM747.237 527.934V546.015H742.618V515.958H747.08V520.654H747.471C748.176 519.128 749.246 517.902 750.681 516.975C752.116 516.036 753.968 515.567 756.238 515.567C758.273 515.567 760.054 515.984 761.58 516.819C763.106 517.641 764.294 518.893 765.142 520.576C765.99 522.246 766.414 524.359 766.414 526.916V546.015H761.795V527.229C761.795 524.868 761.182 523.029 759.956 521.711C758.73 520.38 757.047 519.715 754.907 519.715C753.433 519.715 752.116 520.035 750.955 520.674C749.807 521.313 748.9 522.246 748.235 523.472C747.569 524.698 747.237 526.186 747.237 527.934ZM787.063 546.641C784.35 546.641 781.969 545.995 779.921 544.704C777.885 543.412 776.294 541.605 775.146 539.283C774.011 536.961 773.443 534.248 773.443 531.143C773.443 528.012 774.011 525.279 775.146 522.944C776.294 520.609 777.885 518.795 779.921 517.504C781.969 516.212 784.35 515.567 787.063 515.567C789.777 515.567 792.151 516.212 794.186 517.504C796.234 518.795 797.826 520.609 798.961 522.944C800.109 525.279 800.683 528.012 800.683 531.143C800.683 534.248 800.109 536.961 798.961 539.283C797.826 541.605 796.234 543.412 794.186 544.704C792.151 545.995 789.777 546.641 787.063 546.641ZM787.063 542.493C789.124 542.493 790.82 541.964 792.151 540.908C793.481 539.851 794.466 538.462 795.106 536.739C795.745 535.017 796.064 533.152 796.064 531.143C796.064 529.134 795.745 527.262 795.106 525.527C794.466 523.792 793.481 522.389 792.151 521.32C790.82 520.25 789.124 519.715 787.063 519.715C785.002 519.715 783.306 520.25 781.975 521.32C780.645 522.389 779.66 523.792 779.02 525.527C778.381 527.262 778.062 529.134 778.062 531.143C778.062 533.152 778.381 535.017 779.02 536.739C779.66 538.462 780.645 539.851 781.975 540.908C783.306 541.964 785.002 542.493 787.063 542.493ZM820.804 515.958V519.872H805.227V515.958H820.804ZM809.767 508.757H814.385V537.405C814.385 538.709 814.575 539.688 814.953 540.34C815.344 540.979 815.84 541.41 816.44 541.632C817.053 541.84 817.699 541.945 818.377 541.945C818.886 541.945 819.304 541.919 819.63 541.866C819.956 541.801 820.217 541.749 820.412 541.71L821.352 545.858C821.039 545.976 820.602 546.093 820.041 546.211C819.48 546.341 818.769 546.406 817.908 546.406C816.603 546.406 815.325 546.126 814.072 545.565C812.833 545.004 811.802 544.149 810.98 543.001C810.172 541.853 809.767 540.405 809.767 538.657V508.757ZM854.598 546.641C852.094 546.641 849.882 546.008 847.965 544.743C846.047 543.464 844.547 541.664 843.464 539.342C842.381 537.007 841.84 534.248 841.84 531.065C841.84 527.908 842.381 525.168 843.464 522.846C844.547 520.524 846.053 518.73 847.984 517.465C849.915 516.199 852.146 515.567 854.677 515.567C856.633 515.567 858.179 515.893 859.314 516.545C860.462 517.184 861.336 517.915 861.936 518.737C862.55 519.545 863.026 520.211 863.365 520.733H863.756V505.939H868.374V546.015H863.913V541.397H863.365C863.026 541.945 862.543 542.636 861.917 543.471C861.291 544.293 860.397 545.03 859.236 545.682C858.075 546.321 856.529 546.641 854.598 546.641ZM855.225 542.493C857.077 542.493 858.642 542.01 859.921 541.045C861.199 540.066 862.171 538.716 862.837 536.994C863.502 535.259 863.835 533.256 863.835 530.986C863.835 528.743 863.508 526.779 862.856 525.096C862.204 523.4 861.239 522.083 859.96 521.144C858.682 520.191 857.103 519.715 855.225 519.715C853.268 519.715 851.637 520.217 850.332 521.222C849.041 522.213 848.069 523.563 847.417 525.272C846.778 526.968 846.458 528.873 846.458 530.986C846.458 533.126 846.784 535.07 847.436 536.818C848.102 538.553 849.08 539.936 850.372 540.966C851.676 541.984 853.294 542.493 855.225 542.493ZM890.076 546.641C887.18 546.641 884.681 546.002 882.581 544.723C880.494 543.432 878.883 541.632 877.748 539.323C876.626 537 876.065 534.3 876.065 531.221C876.065 528.142 876.626 525.429 877.748 523.081C878.883 520.72 880.461 518.88 882.483 517.563C884.518 516.232 886.893 515.567 889.606 515.567C891.172 515.567 892.717 515.827 894.244 516.349C895.77 516.871 897.159 517.719 898.412 518.893C899.664 520.054 900.662 521.594 901.406 523.511C902.149 525.429 902.521 527.79 902.521 530.595V532.552H879.352V528.56H897.825C897.825 526.864 897.486 525.351 896.807 524.02C896.142 522.689 895.19 521.639 893.95 520.87C892.724 520.1 891.276 519.715 889.606 519.715C887.767 519.715 886.175 520.172 884.831 521.085C883.501 521.985 882.477 523.159 881.759 524.607C881.042 526.055 880.683 527.608 880.683 529.264V531.926C880.683 534.196 881.074 536.12 881.857 537.698C882.653 539.264 883.755 540.457 885.164 541.279C886.573 542.088 888.21 542.493 890.076 542.493C891.289 542.493 892.385 542.323 893.363 541.984C894.355 541.632 895.209 541.11 895.927 540.418C896.644 539.714 897.199 538.84 897.59 537.796L902.052 539.049C901.582 540.562 900.793 541.892 899.684 543.041C898.575 544.175 897.205 545.063 895.574 545.702C893.944 546.328 892.111 546.641 890.076 546.641ZM930.837 522.689L926.688 523.864C926.427 523.172 926.042 522.5 925.534 521.848C925.038 521.183 924.36 520.635 923.499 520.204C922.638 519.774 921.535 519.558 920.191 519.558C918.352 519.558 916.819 519.982 915.593 520.83C914.38 521.665 913.773 522.729 913.773 524.02C913.773 525.168 914.191 526.075 915.025 526.74C915.86 527.405 917.165 527.96 918.939 528.403L923.401 529.499C926.088 530.151 928.091 531.149 929.408 532.493C930.726 533.824 931.385 535.539 931.385 537.64C931.385 539.362 930.889 540.901 929.897 542.258C928.919 543.615 927.549 544.684 925.788 545.467C924.027 546.25 921.979 546.641 919.644 546.641C916.578 546.641 914.04 545.976 912.031 544.645C910.022 543.314 908.751 541.371 908.216 538.814L912.599 537.718C913.016 539.336 913.806 540.549 914.967 541.358C916.141 542.166 917.674 542.571 919.565 542.571C921.718 542.571 923.427 542.114 924.692 541.201C925.971 540.275 926.61 539.166 926.61 537.874C926.61 536.831 926.245 535.957 925.514 535.252C924.784 534.535 923.662 534 922.148 533.648L917.139 532.474C914.386 531.821 912.364 530.81 911.073 529.44C909.794 528.058 909.155 526.329 909.155 524.255C909.155 522.559 909.631 521.059 910.583 519.754C911.549 518.45 912.86 517.426 914.517 516.682C916.186 515.938 918.078 515.567 920.191 515.567C923.166 515.567 925.501 516.219 927.197 517.523C928.906 518.828 930.119 520.55 930.837 522.689ZM950.547 546.641C947.729 546.641 945.303 545.976 943.267 544.645C941.232 543.314 939.667 541.482 938.571 539.146C937.475 536.811 936.927 534.143 936.927 531.143C936.927 528.09 937.488 525.396 938.61 523.061C939.745 520.713 941.324 518.88 943.346 517.563C945.381 516.232 947.755 515.567 950.469 515.567C952.582 515.567 954.487 515.958 956.183 516.741C957.878 517.523 959.268 518.619 960.351 520.028C961.433 521.437 962.105 523.081 962.366 524.959H957.748C957.396 523.59 956.613 522.376 955.4 521.32C954.2 520.25 952.582 519.715 950.547 519.715C948.747 519.715 947.168 520.185 945.811 521.124C944.468 522.05 943.417 523.361 942.661 525.057C941.917 526.74 941.545 528.716 941.545 530.986C941.545 533.309 941.911 535.331 942.641 537.053C943.385 538.775 944.428 540.112 945.772 541.064C947.129 542.016 948.72 542.493 950.547 542.493C951.747 542.493 952.836 542.284 953.815 541.866C954.793 541.449 955.622 540.849 956.3 540.066C956.978 539.283 957.461 538.344 957.748 537.248H962.366C962.105 539.022 961.459 540.621 960.429 542.043C959.411 543.451 958.061 544.573 956.378 545.408C954.708 546.23 952.765 546.641 950.547 546.641ZM969.117 546.015V515.958H973.579V520.498H973.892C974.44 519.011 975.431 517.804 976.866 516.878C978.301 515.951 979.919 515.488 981.719 515.488C982.058 515.488 982.482 515.495 982.991 515.508C983.5 515.521 983.885 515.54 984.146 515.567V520.263C983.989 520.224 983.63 520.165 983.069 520.087C982.522 519.996 981.941 519.95 981.328 519.95C979.867 519.95 978.562 520.256 977.414 520.87C976.279 521.47 975.379 522.305 974.714 523.374C974.061 524.431 973.735 525.638 973.735 526.994V546.015H969.117ZM989.62 546.015V515.958H994.238V546.015H989.62ZM991.968 510.948C991.068 510.948 990.292 510.642 989.64 510.029C989 509.416 988.681 508.678 988.681 507.817C988.681 506.956 989 506.219 989.64 505.606C990.292 504.993 991.068 504.687 991.968 504.687C992.868 504.687 993.638 504.993 994.277 505.606C994.929 506.219 995.256 506.956 995.256 507.817C995.256 508.678 994.929 509.416 994.277 510.029C993.638 510.642 992.868 510.948 991.968 510.948ZM1003.32 546.015V505.939H1007.94V520.733H1008.33C1008.67 520.211 1009.14 519.545 1009.74 518.737C1010.35 517.915 1011.23 517.184 1012.36 516.545C1013.51 515.893 1015.06 515.567 1017.02 515.567C1019.55 515.567 1021.78 516.199 1023.71 517.465C1025.64 518.73 1027.15 520.524 1028.23 522.846C1029.32 525.168 1029.86 527.908 1029.86 531.065C1029.86 534.248 1029.32 537.007 1028.23 539.342C1027.15 541.664 1025.65 543.464 1023.73 544.743C1021.81 546.008 1019.6 546.641 1017.1 546.641C1015.17 546.641 1013.62 546.321 1012.46 545.682C1011.3 545.03 1010.41 544.293 1009.78 543.471C1009.15 542.636 1008.67 541.945 1008.33 541.397H1007.78V546.015H1003.32ZM1007.86 530.986C1007.86 533.256 1008.2 535.259 1008.86 536.994C1009.53 538.716 1010.5 540.066 1011.78 541.045C1013.05 542.01 1014.62 542.493 1016.47 542.493C1018.4 542.493 1020.01 541.984 1021.31 540.966C1022.61 539.936 1023.59 538.553 1024.24 536.818C1024.91 535.07 1025.24 533.126 1025.24 530.986C1025.24 528.873 1024.91 526.968 1024.26 525.272C1023.62 523.563 1022.65 522.213 1021.35 521.222C1020.05 520.217 1018.43 519.715 1016.47 519.715C1014.59 519.715 1013.02 520.191 1011.74 521.144C1010.46 522.083 1009.49 523.4 1008.84 525.096C1008.19 526.779 1007.86 528.743 1007.86 530.986ZM1049.52 546.641C1046.63 546.641 1044.13 546.002 1042.03 544.723C1039.94 543.432 1038.33 541.632 1037.2 539.323C1036.07 537 1035.51 534.3 1035.51 531.221C1035.51 528.142 1036.07 525.429 1037.2 523.081C1038.33 520.72 1039.91 518.88 1041.93 517.563C1043.97 516.232 1046.34 515.567 1049.05 515.567C1050.62 515.567 1052.17 515.827 1053.69 516.349C1055.22 516.871 1056.61 517.719 1057.86 518.893C1059.11 520.054 1060.11 521.594 1060.85 523.511C1061.6 525.429 1061.97 527.79 1061.97 530.595V532.552H1038.8V528.56H1057.27C1057.27 526.864 1056.93 525.351 1056.26 524.02C1055.59 522.689 1054.64 521.639 1053.4 520.87C1052.17 520.1 1050.72 519.715 1049.05 519.715C1047.21 519.715 1045.62 520.172 1044.28 521.085C1042.95 521.985 1041.92 523.159 1041.21 524.607C1040.49 526.055 1040.13 527.608 1040.13 529.264V531.926C1040.13 534.196 1040.52 536.12 1041.3 537.698C1042.1 539.264 1043.2 540.457 1044.61 541.279C1046.02 542.088 1047.66 542.493 1049.52 542.493C1050.74 542.493 1051.83 542.323 1052.81 541.984C1053.8 541.632 1054.66 541.11 1055.37 540.418C1056.09 539.714 1056.65 538.84 1057.04 537.796L1061.5 539.049C1061.03 540.562 1060.24 541.892 1059.13 543.041C1058.02 544.175 1056.65 545.063 1055.02 545.702C1053.39 546.328 1051.56 546.641 1049.52 546.641ZM1080.34 546.641C1077.84 546.641 1075.63 546.008 1073.71 544.743C1071.79 543.464 1070.29 541.664 1069.21 539.342C1068.13 537.007 1067.59 534.248 1067.59 531.065C1067.59 527.908 1068.13 525.168 1069.21 522.846C1070.29 520.524 1071.8 518.73 1073.73 517.465C1075.66 516.199 1077.89 515.567 1080.42 515.567C1082.38 515.567 1083.92 515.893 1085.06 516.545C1086.21 517.184 1087.08 517.915 1087.68 518.737C1088.3 519.545 1088.77 520.211 1089.11 520.733H1089.5V505.939H1094.12V546.015H1089.66V541.397H1089.11C1088.77 541.945 1088.29 542.636 1087.66 543.471C1087.04 544.293 1086.14 545.03 1084.98 545.682C1083.82 546.321 1082.27 546.641 1080.34 546.641ZM1080.97 542.493C1082.82 542.493 1084.39 542.01 1085.67 541.045C1086.94 540.066 1087.92 538.716 1088.58 536.994C1089.25 535.259 1089.58 533.256 1089.58 530.986C1089.58 528.743 1089.25 526.779 1088.6 525.096C1087.95 523.4 1086.98 522.083 1085.71 521.144C1084.43 520.191 1082.85 519.715 1080.97 519.715C1079.01 519.715 1077.38 520.217 1076.08 521.222C1074.79 522.213 1073.81 523.563 1073.16 525.272C1072.52 526.968 1072.2 528.873 1072.2 530.986C1072.2 533.126 1072.53 535.07 1073.18 536.818C1073.85 538.553 1074.83 539.936 1076.12 540.966C1077.42 541.984 1079.04 542.493 1080.97 542.493Z" fill="#3B4148"/>
<defs>
<linearGradient id="paint0_linear_1633_64485" x1="451.506" y1="230.046" x2="444.773" y2="218.059" gradientUnits="userSpaceOnUse">
<stop stop-color="#F89F20"/>
<stop offset="0.25" stop-color="#F79A20"/>
<stop offset="0.533" stop-color="#F68D20"/>
<stop offset="0.62" stop-color="#F58720"/>
<stop offset="0.723" stop-color="#F48120"/>
<stop offset="1" stop-color="#F37521"/>
</linearGradient>
<linearGradient id="paint1_linear_1633_64485" x1="450.225" y1="229.894" x2="440.575" y2="208.45" gradientUnits="userSpaceOnUse">
<stop stop-color="#F58720"/>
<stop offset="0.359" stop-color="#E16F27"/>
<stop offset="0.703" stop-color="#D4602C"/>
<stop offset="0.982" stop-color="#D05B2E"/>
</linearGradient>
<clipPath id="clip0_1633_64485">
<rect width="132.163" height="132.156" fill="white" transform="translate(63.7734 79.0709)"/>
</clipPath>
<clipPath id="clip1_1633_64485">
<rect width="152.597" height="84.7761" fill="white" transform="translate(364.537 186.687)"/>
</clipPath>
<clipPath id="clip2_1633_64485">
<rect width="152.597" height="84.7761" fill="white" transform="translate(534.09 186.687)"/>
</clipPath>
<clipPath id="clip3_1633_64485">
<rect width="152.597" height="84.7761" fill="white" transform="translate(703.643 186.687)"/>
</clipPath>
<clipPath id="clip4_1633_64485">
<rect width="152.597" height="84.7761" fill="white" transform="translate(873.195 186.687)"/>
</clipPath>
<clipPath id="clip5_1633_64485">
<rect width="152.597" height="84.7761" fill="white" transform="translate(1042.75 186.687)"/>
</clipPath>
<clipPath id="clip6_1633_64485">
<rect width="152.597" height="84.7761" fill="white" transform="translate(1212.3 186.687)"/>
</clipPath>
</defs>
</svg>
